<?xml version="1.0" standalone="no"?>
<!DOCTYPE svg PUBLIC "-//W3C//DTD SVG 20010904//EN"
 "http://www.w3.org/TR/2001/REC-SVG-20010904/DTD/svg10.dtd">
<svg version="1.0" xmlns="http://www.w3.org/2000/svg"
 width="455" height="323" viewBox="0 0 921.000000 796.000000"
 preserveAspectRatio="xMidYMid meet">

<g transform="translate(0.000000,796.000000) scale(0.100000,-0.100000)"
fill="#000000" stroke="none">
<path d="M1162 7364 c-18 -9 -52 -38 -75 -64 -50 -55 -70 -111 -122 -333 -26
-109 -46 -170 -76 -228 -23 -44 -39 -82 -37 -84 3 -3 54 12 114 32 105 37 110
40 139 85 17 26 33 48 38 48 4 0 26 -13 49 -30 46 -34 90 -43 48 -10 -14 11
-35 28 -47 37 -15 12 -24 33 -28 63 -3 25 -12 66 -21 91 -24 72 -11 113 55
182 31 33 70 66 86 74 17 9 33 21 38 27 5 8 9 8 15 0 4 -6 28 -20 54 -32 73
-32 81 -52 82 -200 1 -121 -1 -130 -27 -174 -33 -57 -40 -152 -9 -146 17 3 19
11 52 170 18 92 23 225 10 275 -27 99 -80 177 -140 208 -44 22 -160 27 -198 9z
m-83 -384 c5 -17 6 -30 1 -30 -13 0 -32 39 -25 50 9 15 12 13 24 -20z m41 -61
c0 -6 -4 -7 -10 -4 -5 3 -10 11 -10 16 0 6 5 7 10 4 6 -3 10 -11 10 -16z"/>
<path d="M1395 7102 c-6 -4 -12 -22 -13 -39 -2 -27 1 -33 18 -33 11 0 20 5 20
10 0 6 7 10 15 10 21 0 19 30 -2 31 -11 0 -13 3 -5 6 6 2 12 9 12 14 0 11 -31
12 -45 1z"/>
<path d="M1190 7083 c-27 -11 -29 -27 -8 -50 24 -26 68 -31 68 -8 0 8 7 15 15
15 18 0 20 16 3 23 -10 4 -10 6 0 6 6 1 12 6 12 11 0 11 -64 12 -90 3z"/>
<path d="M3404 7014 c-57 -28 -70 -93 -29 -142 l24 -29 -24 -21 c-73 -64 -16
-172 92 -172 50 0 97 21 113 49 19 37 12 96 -14 120 l-25 23 22 29 c51 69 2
159 -86 159 -23 0 -56 -7 -73 -16z m87 -44 c13 -7 19 -21 19 -43 0 -57 -45
-77 -74 -35 -21 30 -20 44 4 68 23 23 25 23 51 10z m7 -166 c40 -28 21 -104
-27 -104 -53 0 -76 85 -28 108 30 14 29 14 55 -4z"/>
<path d="M3703 7010 c-35 -21 -53 -48 -53 -79 0 -33 57 -29 70 3 5 14 19 30
30 36 31 16 70 -11 70 -48 0 -34 -16 -58 -102 -151 -45 -48 -68 -81 -68 -97
l0 -24 131 0 130 0 -3 28 c-3 26 -5 27 -80 32 l-78 5 61 70 c34 39 65 80 70
93 12 31 11 79 -1 103 -26 48 -121 64 -177 29z"/>
<path d="M4019 7015 c-43 -23 -59 -71 -59 -175 0 -138 34 -190 125 -190 83 0
125 63 125 188 0 87 -17 139 -55 168 -37 28 -95 31 -136 9z m91 -45 c27 0 41
-169 19 -227 -18 -47 -47 -55 -79 -23 -17 17 -20 33 -20 120 0 88 3 103 21
121 11 11 27 18 36 15 8 -3 18 -6 23 -6z"/>
<path d="M5291 7014 c-73 -31 -111 -100 -111 -202 0 -101 49 -162 129 -162 74
0 121 51 121 130 0 95 -74 143 -162 105 -27 -11 -22 10 10 46 16 17 42 34 62
38 28 5 36 12 38 34 3 24 0 27 -25 27 -15 -1 -43 -7 -62 -16z m47 -180 c33
-23 32 -97 -3 -120 -22 -15 -29 -15 -51 -4 -44 24 -47 106 -4 127 32 16 31 16
58 -3z"/>
<path d="M5669 7016 c-32 -18 -59 -58 -59 -86 0 -16 6 -20 35 -20 28 0 35 4
35 20 0 11 11 27 24 35 35 23 76 3 76 -37 0 -41 -13 -62 -97 -153 -46 -50 -73
-88 -73 -102 0 -23 2 -23 131 -23 l130 0 -3 28 c-3 27 -4 27 -81 30 l-78 3 53
60 c75 85 88 108 88 156 0 64 -32 95 -101 100 -35 2 -63 -2 -80 -11z"/>
<path d="M6061 7016 c-33 -40 -151 -240 -151 -257 0 -17 8 -19 64 -19 88 0 96
-4 96 -51 0 -38 1 -39 35 -39 35 0 35 0 35 45 0 38 3 45 20 45 15 0 20 7 20
25 0 18 -5 25 -20 25 -18 0 -20 8 -22 118 l-3 117 -31 3 c-18 2 -36 -3 -43
-12z m5 -163 l-1 -58 -37 -3 c-24 -2 -38 1 -38 8 0 17 64 119 71 114 4 -2 6
-30 5 -61z"/>
<path d="M6278 7014 c-29 -15 -62 -67 -51 -78 15 -14 61 -5 75 15 27 41 98 21
98 -27 0 -32 -26 -54 -66 -54 -30 0 -34 -3 -34 -25 0 -18 5 -25 19 -25 10 0
32 -5 50 -11 28 -10 31 -15 31 -50 0 -61 -51 -79 -96 -34 -30 31 -84 35 -84 7
0 -10 9 -28 21 -41 56 -60 185 -54 216 11 27 56 21 98 -18 126 -19 13 -19 14
6 44 59 70 5 159 -97 158 -23 -1 -55 -7 -70 -16z"/>
<path d="M7545 7012 c-24 -11 -52 -37 -70 -62 -25 -36 -30 -55 -33 -117 -5
-85 7 -122 50 -158 55 -46 164 -22 188 41 25 64 3 148 -46 174 -22 12 -73 10
-106 -4 -13 -6 -15 -3 -11 12 7 30 47 63 85 71 27 6 33 12 33 31 0 32 -35 37
-90 12z m55 -182 c29 -29 27 -94 -2 -114 -30 -21 -44 -20 -68 4 -29 29 -27 94
2 114 30 21 44 20 68 -4z"/>
<path d="M7860 7014 c-77 -33 -113 -96 -114 -199 -1 -108 45 -165 131 -165 47
1 78 17 104 56 37 56 15 154 -42 184 -21 12 -69 10 -101 -5 -30 -12 -21 14 16
51 21 21 44 34 60 34 22 0 26 4 26 30 0 25 -4 30 -22 30 -13 -1 -39 -8 -58
-16z m55 -186 c6 -5 10 -29 10 -54 0 -46 -20 -74 -52 -74 -50 0 -74 104 -31
134 22 16 53 13 73 -6z"/>
<path d="M8177 6993 c-66 -97 -137 -219 -137 -235 0 -15 11 -18 78 -20 l77 -3
3 -42 c3 -42 4 -43 38 -43 33 0 34 1 34 41 0 32 4 42 20 46 28 7 28 53 0 53
-18 0 -20 8 -22 118 l-3 117 -31 3 c-26 3 -35 -3 -57 -35z m23 -138 l0 -65
-40 0 c-22 0 -40 4 -40 10 0 11 68 120 75 120 3 0 5 -29 5 -65z"/>
<path d="M1280 6854 c0 -14 8 -16 41 -11 66 9 73 27 11 27 -41 0 -52 -3 -52
-16z"/>
<path d="M5492 6644 c-10 -54 -10 -69 0 -75 6 -4 16 -5 20 -3 16 10 36 60 40
99 3 36 1 40 -22 43 -24 3 -26 -1 -38 -64z"/>
<path d="M787 6394 c-4 -4 -7 -21 -7 -38 0 -32 -26 -93 -56 -133 -14 -20 -14
-23 -1 -23 8 0 20 7 27 15 6 8 22 13 33 12 20 -2 22 3 25 71 3 69 -6 110 -21
96z"/>
<path d="M5440 6225 c0 -131 2 -155 15 -155 13 0 15 24 15 155 0 131 -2 155
-15 155 -13 0 -15 -24 -15 -155z"/>
<path d="M5540 6226 c0 -150 1 -156 20 -156 20 0 20 5 18 152 -3 136 -5 153
-20 156 -17 3 -18 -9 -18 -152z"/>
<path d="M7490 6225 c0 -131 2 -155 15 -155 13 0 15 24 15 155 0 131 -2 155
-15 155 -13 0 -15 -24 -15 -155z"/>
<path d="M7590 6225 c0 -131 2 -155 15 -155 13 0 15 24 15 155 0 131 -2 155
-15 155 -13 0 -15 -24 -15 -155z"/>
<path d="M3290 6215 c0 -138 1 -145 20 -145 18 0 20 7 20 60 l0 60 60 0 c51 0
65 4 85 25 35 34 33 78 -4 116 -27 27 -35 29 -105 29 l-76 0 0 -145z m158 103
c16 -16 15 -73 0 -86 -11 -9 -68 -16 -105 -13 -9 1 -13 19 -13 56 l0 55 53 0
c29 0 58 -5 65 -12z"/>
<path d="M4980 6215 c0 -138 1 -145 20 -145 18 0 20 7 20 65 l0 65 60 0 c47 0
60 3 60 15 0 12 -13 15 -60 15 l-60 0 0 50 0 50 70 0 c56 0 70 3 70 15 0 12
-17 15 -90 15 l-90 0 0 -145z"/>
<path d="M7030 6215 c0 -122 2 -145 15 -145 12 0 15 14 15 65 l0 65 66 0 c85
0 84 23 -2 30 l-59 5 -3 47 -3 47 72 3 c47 2 74 7 77 16 3 9 -19 12 -87 12
l-91 0 0 -145z"/>
<path d="M8230 6345 c0 -8 7 -15 15 -15 8 0 15 7 15 15 0 8 -7 15 -15 15 -8 0
-15 -7 -15 -15z"/>
<path d="M4000 6316 c0 -15 -7 -26 -20 -29 -11 -3 -20 -10 -20 -16 0 -6 9 -11
20 -11 18 0 20 -7 20 -83 0 -91 8 -107 52 -107 35 0 36 17 3 30 -24 9 -25 14
-25 85 0 68 2 75 19 75 29 0 35 18 9 22 -17 2 -24 11 -26 31 -4 34 -32 37 -32
3z"/>
<path d="M3581 6274 c-13 -9 -30 -32 -37 -51 -43 -103 74 -202 149 -127 49 49
47 125 -5 169 -34 29 -73 32 -107 9z m93 -36 c9 -12 16 -38 16 -58 0 -48 -24
-80 -60 -80 -36 0 -60 32 -60 80 0 48 24 80 60 80 18 0 34 -8 44 -22z"/>
<path d="M3795 6265 c-14 -13 -25 -30 -25 -38 0 -22 33 -46 81 -60 37 -11 44
-17 44 -37 0 -22 -5 -25 -37 -28 -28 -2 -42 2 -55 17 -21 25 -33 27 -33 6 0
-26 42 -55 80 -55 48 0 80 24 80 59 0 32 -26 54 -81 69 -27 6 -34 13 -34 33 0
20 6 25 31 27 19 2 36 -3 44 -12 14 -17 40 -22 40 -7 0 18 -53 51 -82 51 -17
0 -39 -10 -53 -25z"/>
<path d="M4144 6265 c-19 -19 -23 -31 -18 -48 8 -28 19 -35 71 -48 41 -11 62
-36 48 -59 -12 -19 -79 -12 -93 10 -14 24 -32 26 -32 5 0 -28 38 -55 78 -55
50 0 82 23 82 59 0 35 -16 49 -72 66 -35 10 -43 17 -43 36 0 34 49 39 77 9 15
-16 23 -19 32 -10 8 8 4 18 -17 36 -37 32 -81 31 -113 -1z"/>
<path d="M5229 6261 c-25 -25 -29 -37 -29 -84 0 -49 3 -58 31 -81 51 -43 115
-32 144 24 57 110 -61 225 -146 141z m98 -9 c32 -20 38 -105 11 -139 -18 -22
-75 -16 -92 9 -36 51 -9 138 42 138 15 0 32 -4 39 -8z"/>
<path d="M5684 6280 c-23 -9 -54 -66 -54 -98 0 -63 44 -112 99 -112 41 0 89
45 92 85 3 61 -2 77 -30 106 -30 30 -65 36 -107 19z m90 -42 c37 -52 9 -138
-44 -138 -16 0 -36 7 -44 16 -22 21 -21 102 1 126 23 25 68 23 87 -4z"/>
<path d="M5860 6279 c0 -6 12 -55 27 -110 19 -72 30 -99 41 -97 8 2 25 37 39
83 l25 80 25 -70 c14 -39 27 -76 29 -82 2 -7 10 -13 17 -13 9 0 23 34 41 98
30 115 30 112 12 112 -9 0 -20 -25 -31 -70 -9 -38 -20 -70 -24 -70 -3 0 -17
32 -31 71 -14 39 -29 71 -35 71 -5 0 -21 -32 -35 -71 -14 -39 -27 -71 -30 -71
-4 0 -14 31 -24 69 -10 38 -24 72 -32 75 -8 3 -14 1 -14 -5z"/>
<path d="M6223 6280 c-30 -12 -53 -60 -53 -110 0 -81 91 -130 151 -81 28 23
20 38 -11 21 -34 -18 -83 -9 -97 19 -6 14 -10 29 -7 33 3 4 37 8 76 8 l71 0
-6 38 c-11 64 -65 96 -124 72z m74 -32 c30 -39 24 -48 -32 -48 -41 0 -55 4
-55 14 0 37 65 62 87 34z"/>
<path d="M6450 6280 c-8 -5 -25 -7 -37 -3 -23 5 -23 4 -23 -101 0 -88 3 -106
15 -106 12 0 15 15 15 75 0 62 4 79 20 95 11 11 27 20 35 20 8 0 15 7 15 15 0
17 -18 19 -40 5z"/>
<path d="M6560 6277 c-27 -14 -39 -61 -20 -81 6 -6 32 -18 58 -26 39 -13 47
-19 47 -40 0 -21 -5 -25 -34 -28 -27 -3 -39 2 -52 20 -14 18 -20 20 -30 11
-22 -22 26 -63 73 -63 40 0 88 34 88 63 0 21 -32 45 -83 63 -26 9 -47 20 -47
24 0 43 49 54 87 19 21 -21 23 -21 29 -4 16 41 -62 69 -116 42z"/>
<path d="M7287 6270 c-53 -42 -57 -121 -9 -172 35 -38 81 -38 124 1 29 26 33
35 33 81 0 46 -4 55 -33 81 -38 34 -78 38 -115 9z m97 -32 c9 -12 16 -38 16
-58 0 -69 -57 -104 -102 -63 -24 21 -25 99 -1 125 23 25 68 23 87 -4z"/>
<path d="M7734 6280 c-32 -13 -54 -55 -54 -105 0 -107 128 -147 175 -55 50 96
-27 198 -121 160z m80 -36 c30 -30 32 -97 4 -131 -14 -17 -73 -16 -87 1 -21
25 -24 81 -7 114 13 25 23 32 46 32 16 0 36 -7 44 -16z"/>
<path d="M7907 6283 c-3 -3 -4 -10 -2 -16 2 -7 16 -54 31 -104 16 -56 32 -93
40 -93 8 0 22 31 35 75 12 41 26 75 30 75 5 0 19 -34 31 -75 15 -52 27 -75 36
-73 19 4 77 197 63 211 -13 13 -26 -14 -42 -86 -7 -32 -16 -60 -19 -62 -4 -3
-17 29 -29 70 -33 109 -44 109 -79 -2 -13 -40 -25 -73 -27 -73 -2 0 -11 34
-21 75 -16 66 -32 94 -47 78z"/>
<path d="M8236 6283 c-3 -3 -6 -53 -6 -110 0 -85 3 -103 15 -103 12 0 15 18
15 104 0 96 -7 126 -24 109z"/>
<path d="M8337 6283 c-4 -3 -7 -53 -7 -110 0 -85 3 -103 15 -103 12 0 15 15
15 78 0 84 14 112 56 112 36 0 44 -20 44 -107 0 -68 3 -83 15 -83 13 0 15 15
13 97 -3 94 -4 98 -30 112 -22 13 -33 14 -59 4 -21 -8 -37 -9 -44 -3 -7 5 -15
7 -18 3z"/>
<path d="M8579 6261 c-61 -62 -24 -191 55 -191 18 0 37 5 43 11 15 15 22 -2
12 -29 -13 -36 -53 -48 -85 -27 -34 22 -56 5 -23 -19 32 -22 91 -20 120 3 22
18 24 28 27 135 5 129 0 155 -22 136 -11 -8 -20 -8 -35 -1 -33 18 -61 12 -92
-18z m101 -16 c18 -22 22 -87 8 -115 -11 -19 -21 -25 -48 -25 -27 0 -37 6 -48
25 -14 27 -8 95 10 117 14 18 63 17 78 -2z"/>
<path d="M870 6216 c0 -9 5 -16 10 -16 6 0 10 4 10 9 0 6 -4 13 -10 16 -5 3
-10 -1 -10 -9z"/>
<path d="M2038 6083 c-16 -2 -28 -6 -28 -9 0 -4 91 -94 96 -94 5 0 17 91 13
95 -8 7 -55 12 -81 8z"/>
<path d="M1051 6002 c-52 -1 -100 -7 -107 -13 -6 -5 -15 -35 -18 -67 -4 -31
-10 -71 -13 -89 -5 -30 -2 -33 47 -58 29 -14 54 -25 56 -23 2 2 6 22 9 44 12
85 5 79 102 81 178 4 533 38 561 53 8 4 -88 10 -213 13 -223 6 -228 7 -278 34
-48 26 -59 28 -146 25z"/>
<path d="M1730 5942 c0 -11 3 -12 13 -3 15 12 33 -3 55 -44 10 -19 11 -18 17
8 6 24 12 27 52 27 24 0 54 -5 66 -11 22 -11 22 -11 -1 12 -20 22 -32 24 -112
25 -72 0 -90 -3 -90 -14z"/>
<path d="M1809 5815 c-5 -65 -4 -74 11 -59 7 7 7 30 2 65 l-9 54 -4 -60z"/>
<path d="M1460 5445 c-21 -39 -3 -42 33 -7 l32 32 -26 0 c-17 0 -30 -8 -39
-25z"/>
<path d="M1600 5448 c-1 -13 -2 -79 -2 -148 l-2 -125 70 -3 c93 -3 109 12 109
103 0 85 -20 109 -87 103 l-48 -5 0 48 c0 42 -3 49 -20 49 -14 0 -20 -7 -20
-22z m128 -128 c14 -28 10 -84 -9 -106 -17 -20 -57 -17 -69 5 -17 33 -13 108
8 120 27 16 55 9 70 -19z"/>
<path d="M2778 5388 c-4 -189 -2 -213 21 -216 21 -3 21 0 21 147 0 144 -1 151
-20 151 -18 0 -20 -7 -22 -82z"/>
<path d="M1119 5453 c0 -5 -1 -69 -2 -143 l-1 -135 60 -3 c95 -4 154 49 154
138 0 34 -22 94 -42 114 -29 28 -166 52 -169 29z m132 -52 c18 -14 23 -31 27
-78 4 -52 1 -63 -19 -86 -23 -24 -41 -31 -81 -28 -16 1 -18 13 -18 99 0 54 3
102 7 105 13 13 61 7 84 -12z"/>
<path d="M2528 5454 c-5 -4 -8 -70 -8 -146 l0 -138 70 0 c83 0 116 13 129 52
12 33 0 75 -24 84 -13 5 -12 10 5 31 26 33 25 56 -3 89 -20 23 -33 27 -93 31
-38 3 -72 2 -76 -3z m126 -47 c11 -8 17 -23 14 -38 -3 -21 -9 -24 -50 -27
l-48 -3 0 40 c0 40 1 41 33 41 18 0 41 -6 51 -13z m10 -123 c36 -36 12 -73
-50 -77 -37 -2 -39 -1 -42 31 -2 19 -1 40 2 48 7 19 71 18 90 -2z"/>
<path d="M682 5375 c-55 -24 -77 -97 -47 -155 30 -57 108 -71 153 -27 37 37
43 114 11 150 -32 36 -77 48 -117 32z m65 -33 c19 -12 34 -61 27 -90 -9 -37
-23 -52 -47 -52 -34 0 -57 29 -57 73 0 59 39 94 77 69z"/>
<path d="M940 5380 c-8 -6 -30 -7 -47 -4 l-33 6 0 -106 c0 -106 0 -106 25
-106 24 0 24 2 27 83 3 81 3 82 31 85 19 2 27 9 27 22 0 24 -12 31 -30 20z"/>
<path d="M1874 5374 c-77 -38 -71 -181 9 -202 77 -21 127 21 127 105 0 44 -5
58 -25 78 -13 14 -31 25 -39 25 -8 0 -20 2 -28 5 -7 2 -27 -2 -44 -11z m80
-46 c34 -48 9 -128 -39 -128 -50 0 -72 90 -34 136 17 21 56 17 73 -8z"/>
<path d="M2245 5379 c-28 -8 -55 -33 -55 -51 0 -14 37 -9 50 8 20 23 64 14 68
-13 2 -14 -2 -23 -10 -24 -83 -5 -113 -30 -109 -92 1 -24 58 -48 88 -36 13 5
36 6 53 3 l30 -6 0 86 c0 73 -3 89 -20 106 -11 11 -24 20 -29 20 -5 0 -15 2
-23 4 -7 2 -26 0 -43 -5z m65 -138 c0 -43 -63 -60 -75 -21 -9 28 11 50 46 50
25 0 29 -4 29 -29z"/>
<path d="M3160 5383 c-38 -12 -59 -27 -64 -47 -7 -28 17 -62 51 -70 43 -11 73
-34 67 -51 -8 -20 -70 -20 -78 0 -7 19 -46 20 -46 2 0 -43 96 -65 144 -33 26
16 34 49 18 74 -5 7 -31 21 -58 30 -36 13 -49 23 -49 37 0 26 52 34 61 11 7
-17 54 -22 54 -6 0 13 -37 50 -49 50 -5 0 -15 2 -23 4 -7 3 -20 2 -28 -1z"/>
<path d="M3363 5375 c-47 -20 -67 -56 -60 -111 7 -63 37 -94 93 -94 57 0 93
31 101 86 7 54 -17 101 -62 120 -40 16 -32 17 -72 -1z m71 -41 c10 -9 16 -33
16 -59 0 -47 -19 -75 -50 -75 -31 0 -50 28 -50 75 0 47 19 75 50 75 10 0 26
-7 34 -16z"/>
<path d="M400 5228 c0 -149 0 -149 23 -146 19 3 22 9 23 45 1 52 4 56 36 44
76 -29 138 83 93 169 -18 34 -32 39 -112 38 l-63 -1 0 -149z m124 106 c10 -9
16 -33 16 -59 0 -62 -44 -97 -78 -63 -16 16 -16 125 1 131 24 10 46 7 61 -9z"/>
<path d="M1400 5362 c-43 -35 -43 -139 1 -174 25 -21 108 -25 127 -6 19 19 15
41 -5 33 -45 -20 -80 -17 -97 6 -9 13 -16 27 -16 31 0 5 32 8 71 8 l72 0 -6
42 c-4 27 -14 49 -27 60 -29 23 -91 23 -120 0z m95 -28 c24 -24 13 -39 -30
-42 -47 -4 -59 7 -39 36 18 26 46 28 69 6z"/>
<path d="M2060 5274 c0 -97 1 -104 20 -104 18 0 20 7 20 74 0 76 7 90 45 98
11 2 21 11 23 20 3 14 -6 16 -52 16 l-56 -1 0 -103z"/>
<path d="M2899 5367 c-8 -7 -18 -20 -22 -29 -5 -14 -1 -18 17 -18 13 0 26 7
30 15 8 22 53 19 66 -4 15 -28 14 -29 -32 -36 -61 -10 -88 -30 -88 -65 0 -47
21 -59 103 -58 l72 0 -3 87 c-3 72 -7 89 -24 104 -24 20 -95 23 -119 4z m93
-127 c-4 -41 -53 -54 -75 -18 -16 25 9 50 47 46 26 -3 31 -7 28 -28z"/>
<path d="M1290 4780 c0 -93 4 -150 10 -150 6 0 10 33 10 78 0 42 4 82 8 88 15
23 50 34 76 24 25 -9 26 -12 26 -95 0 -69 3 -85 15 -85 12 0 15 15 15 78 0 65
-3 82 -20 100 -22 23 -74 30 -85 12 -3 -5 -13 -10 -21 -10 -10 0 -14 14 -14
55 0 30 -4 55 -10 55 -6 0 -10 -57 -10 -150z"/>
<path d="M1740 4785 c0 -122 2 -145 15 -145 13 0 15 23 15 145 0 122 -2 145
-15 145 -13 0 -15 -23 -15 -145z"/>
<path d="M410 4780 c0 -118 2 -140 15 -140 12 0 15 13 15 55 l0 55 60 0 c53 0
64 3 85 26 65 71 4 144 -120 144 l-55 0 0 -140z m161 92 c17 -22 15 -65 -4
-89 -5 -8 -33 -13 -68 -13 l-59 0 0 58 c0 32 3 62 8 66 15 16 105 -1 123 -22z"/>
<path d="M2310 4905 c0 -8 5 -15 10 -15 6 0 10 7 10 15 0 8 -4 15 -10 15 -5 0
-10 -7 -10 -15z"/>
<path d="M2630 4865 c0 -19 -5 -25 -22 -26 l-23 0 23 -9 c20 -9 22 -16 22 -88
0 -64 4 -82 18 -95 21 -19 42 -22 42 -7 0 6 -7 10 -15 10 -8 0 -15 5 -16 10 0
6 0 41 -1 79 0 70 6 96 22 86 5 -3 11 -1 15 5 3 5 -3 10 -14 10 -16 0 -21 6
-21 25 0 16 -6 25 -15 25 -9 0 -15 -9 -15 -25z"/>
<path d="M687 4822 c-20 -22 -22 -57 -5 -69 7 -4 33 -15 58 -23 34 -11 46 -21
48 -39 4 -29 -12 -41 -55 -41 -22 0 -37 7 -47 22 -9 12 -19 18 -23 14 -5 -4 5
-19 21 -33 24 -20 36 -24 65 -19 88 14 84 94 -5 110 -17 4 -39 15 -48 25 -17
18 -17 20 3 40 12 12 26 21 32 21 15 0 53 -21 61 -34 4 -6 11 -7 15 -2 13 13
-37 46 -72 46 -18 0 -39 -8 -48 -18z"/>
<path d="M860 4833 c0 -4 13 -40 29 -79 16 -38 32 -84 35 -100 9 -41 -8 -84
-34 -84 -11 0 -20 -4 -20 -10 0 -19 40 -10 54 13 11 17 96 251 96 264 0 2 -4
3 -9 3 -5 0 -19 -30 -31 -67 -12 -38 -26 -75 -30 -83 -9 -16 -14 -6 -49 94
-10 28 -23 52 -29 54 -7 2 -12 0 -12 -5z"/>
<path d="M1095 4814 c-25 -23 -27 -30 -23 -81 4 -46 10 -61 33 -81 22 -18 35
-22 59 -18 34 7 74 41 63 53 -4 4 -14 -3 -23 -15 -18 -26 -75 -30 -94 -7 -7 9
-15 38 -18 65 -4 42 -1 52 21 74 33 33 51 33 83 1 14 -14 27 -25 29 -25 12 0
3 21 -17 40 -31 28 -79 26 -113 -6z"/>
<path d="M1535 4817 c-30 -25 -43 -87 -26 -129 13 -35 63 -61 100 -53 76 16
102 116 47 174 -37 38 -83 41 -121 8z m100 -12 c33 -32 35 -105 5 -135 -60
-60 -140 15 -110 105 19 56 66 70 105 30z"/>
<path d="M1873 4825 c-27 -19 -44 -76 -36 -116 8 -44 59 -82 97 -75 84 17 111
121 46 186 -24 24 -76 26 -107 5z m91 -16 c21 -17 26 -29 26 -68 0 -62 -21
-91 -65 -91 -44 0 -65 29 -65 91 0 39 5 51 26 68 15 12 32 21 39 21 7 0 24 -9
39 -21z"/>
<path d="M2092 4817 c-29 -31 -31 -124 -4 -157 19 -24 60 -30 101 -16 23 8 24
7 17 -25 -3 -18 -12 -37 -19 -41 -17 -11 -75 -10 -82 2 -8 12 -25 13 -25 1 0
-18 60 -34 93 -25 47 14 57 43 57 173 0 101 -2 112 -15 101 -12 -10 -19 -10
-27 -2 -20 20 -73 14 -96 -11z m106 -10 c18 -14 16 -122 -4 -141 -23 -24 -70
-20 -88 6 -22 31 -21 111 2 130 31 28 59 29 90 5z"/>
<path d="M2310 4740 c0 -60 4 -100 10 -100 6 0 10 40 10 100 0 60 -4 100 -10
100 -6 0 -10 -40 -10 -100z"/>
<path d="M2421 4814 c-31 -40 -11 -65 74 -90 33 -10 47 -50 23 -65 -26 -17
-76 -10 -92 13 -9 12 -19 18 -23 14 -11 -11 44 -56 67 -56 31 0 68 18 79 38
14 26 -21 72 -53 72 -30 0 -66 27 -66 51 0 11 11 24 25 31 22 10 30 8 56 -11
36 -27 49 -21 20 8 -31 31 -84 28 -110 -5z"/>
<path d="M464 4354 c-84 -41 -86 -227 -3 -269 35 -19 72 -19 108 -1 31 17 57
64 42 79 -12 12 -31 1 -31 -18 0 -19 -39 -45 -68 -45 -12 0 -34 11 -47 25 -21
20 -25 33 -25 87 0 35 6 74 13 88 26 52 106 49 127 -5 5 -14 16 -25 25 -25 40
0 -9 84 -55 94 -44 8 -51 8 -86 -10z"/>
<path d="M1224 4358 c-33 -16 -44 -51 -44 -147 0 -74 3 -91 20 -109 44 -47
114 -38 142 19 22 42 24 146 3 194 -20 49 -72 67 -121 43z m80 -40 c22 -31 22
-165 0 -196 -21 -31 -64 -26 -82 8 -17 33 -12 171 7 193 19 24 57 21 75 -5z"/>
<path d="M1860 4363 c-27 -10 -50 -36 -50 -55 0 -24 27 -23 35 2 7 24 51 37
74 23 20 -12 26 -59 11 -78 -6 -8 -23 -15 -37 -17 -34 -4 -43 -28 -11 -28 34
0 68 -27 68 -54 0 -26 -29 -56 -54 -56 -26 0 -56 19 -56 35 0 8 -9 15 -20 15
-28 0 -25 -17 10 -52 27 -27 36 -30 72 -25 54 7 80 34 80 82 0 28 -6 43 -22
55 l-21 16 20 19 c26 22 27 65 4 94 -18 22 -75 35 -103 24z"/>
<path d="M2080 4357 c-36 -18 -53 -76 -37 -124 16 -48 54 -69 99 -54 40 14 43
10 24 -28 -10 -19 -27 -33 -44 -37 -47 -10 -54 -14 -49 -27 5 -15 54 -10 84 9
42 27 59 86 54 187 -1 35 -51 87 -83 87 -13 0 -34 -6 -48 -13z m66 -25 c37
-25 44 -94 12 -116 -31 -22 -54 -20 -72 6 -41 58 7 145 60 110z"/>
<path d="M2387 4357 c-24 -19 -138 -198 -131 -208 3 -5 34 -9 70 -9 l64 0 0
-35 c0 -24 5 -35 15 -35 10 0 15 11 15 35 0 28 4 35 20 35 11 0 20 7 20 15 0
8 -9 15 -20 15 -19 0 -20 7 -20 94 0 98 -6 114 -33 93z m1 -119 l-3 -63 -42
-3 c-24 -2 -43 -1 -43 2 0 12 75 126 83 126 4 0 7 -28 5 -62z"/>
<path d="M2538 4353 c-36 -23 -42 -80 -13 -113 14 -15 13 -19 -5 -35 -24 -22
-26 -71 -5 -102 20 -28 76 -39 116 -23 52 22 65 77 28 124 -19 24 -19 27 -5
42 22 21 20 77 -3 98 -28 25 -81 30 -113 9z m87 -33 c24 -27 13 -68 -22 -76
-34 -9 -57 6 -61 40 -6 53 47 76 83 36z m-4 -120 c22 -12 27 -68 7 -88 -28
-28 -98 -1 -98 37 0 26 29 61 51 61 11 0 29 -5 40 -10z"/>
<path d="M672 4218 c3 -119 5 -143 18 -143 11 0 16 14 18 58 l3 58 37 -3 c33
-3 40 -8 66 -56 26 -50 50 -72 63 -59 3 3 -9 31 -26 62 l-32 56 26 30 c30 37
32 77 4 113 -19 24 -26 26 -100 26 l-80 0 3 -142z m146 100 c18 -16 15 -63 -7
-82 -13 -12 -32 -16 -58 -14 l-38 3 -3 52 c-2 43 0 52 15 56 23 6 74 -2 91
-15z"/>
<path d="M930 4214 c0 -133 1 -145 18 -142 13 2 18 15 20 61 l3 57 49 0 c66 0
97 16 110 56 13 39 7 67 -23 94 -17 16 -35 20 -99 20 l-78 0 0 -146z m158 98
c6 -9 12 -26 12 -38 0 -37 -26 -54 -83 -54 l-52 0 3 48 c5 74 6 75 60 67 26
-3 53 -14 60 -23z"/>
<path d="M1466 4276 c-75 -117 -80 -125 -64 -131 7 -2 38 -6 68 -7 54 -3 55
-4 58 -35 5 -47 32 -44 32 2 0 28 4 35 20 35 11 0 20 7 20 15 0 8 -9 15 -20
15 -19 0 -20 7 -20 95 0 88 -1 95 -20 95 -14 0 -36 -25 -74 -84z m62 -38 l-3
-63 -42 -3 c-24 -2 -43 -1 -43 2 0 12 75 126 83 126 4 0 7 -28 5 -62z"/>
<path d="M1681 4217 c-30 -78 -56 -148 -59 -154 -2 -7 3 -13 11 -13 10 0 33
49 71 148 31 81 56 151 56 155 0 4 -6 7 -12 7 -7 0 -37 -64 -67 -143z"/>
<path d="M2756 4329 c-3 -17 -6 -49 -6 -71 l0 -39 45 7 c36 5 50 3 65 -11 38
-35 14 -115 -35 -115 -24 0 -55 23 -55 41 0 5 -7 9 -15 9 -21 0 -19 -23 4 -51
25 -31 98 -34 129 -6 39 36 36 122 -6 153 -9 8 -37 14 -61 14 -35 0 -42 3 -37
16 3 9 6 24 6 35 0 17 8 19 60 19 47 0 60 3 60 15 0 12 -15 15 -74 15 l-73 0
-7 -31z"/>
<path d="M545 3847 c-11 -8 -46 -24 -77 -36 -32 -13 -58 -26 -58 -30 0 -12
218 -121 240 -121 12 0 52 14 90 30 74 33 100 37 100 17 0 -7 -30 -28 -67 -46
-137 -68 -117 -67 -238 -5 -59 30 -109 53 -112 50 -3 -3 2 -17 11 -31 19 -29
15 -55 -9 -55 -30 0 -14 -15 50 -50 36 -19 65 -38 65 -42 0 -5 4 -8 9 -8 5 0
7 9 4 20 -4 14 2 23 21 31 16 7 25 18 22 26 -6 16 10 18 20 2 9 -15 65 -3 121
27 94 50 108 61 111 82 3 18 -15 31 -127 87 -72 36 -137 65 -144 65 -7 0 -21
-6 -32 -13z"/>
<path d="M2656 3804 c-3 -9 -6 -33 -6 -54 l0 -38 -30 11 c-37 14 -77 -4 -98
-43 -19 -37 -10 -116 18 -145 25 -27 77 -34 97 -14 8 8 13 8 17 0 4 -6 14 -11
22 -11 12 0 14 27 14 155 0 126 -3 155 -14 155 -8 0 -17 -7 -20 -16z m-18
-116 c16 -16 16 -120 0 -136 -7 -7 -22 -12 -34 -12 -36 0 -54 26 -54 80 0 54
18 80 54 80 12 0 27 -5 34 -12z"/>
<path d="M6157 3814 c-12 -12 -8 -292 4 -300 6 -3 15 -1 19 6 6 9 13 9 28 1
34 -18 69 -13 97 14 20 21 25 36 25 76 0 89 -48 135 -113 110 -20 -8 -27 -7
-28 2 0 6 -1 30 -2 51 -2 37 -15 55 -30 40z m123 -129 c21 -25 24 -92 6 -120
-18 -28 -66 -35 -85 -12 -15 19 -17 113 -1 132 16 19 64 20 80 0z"/>
<path d="M7200 3665 c0 -131 2 -155 15 -155 13 0 15 24 15 155 0 131 -2 155
-15 155 -13 0 -15 -24 -15 -155z"/>
<path d="M1020 3655 c0 -138 1 -145 20 -145 19 0 20 7 20 107 0 63 4 103 9 98
5 -6 26 -54 47 -108 27 -69 42 -97 53 -95 8 2 31 44 53 98 59 148 57 147 56
20 0 -99 2 -115 16 -118 14 -3 16 13 16 142 0 146 0 146 -23 146 -20 0 -29
-15 -66 -107 -24 -60 -47 -112 -51 -116 -4 -4 -27 44 -51 108 -41 108 -46 115
-71 115 l-28 0 0 -145z"/>
<path d="M6520 3785 c0 -8 9 -15 20 -15 11 0 20 7 20 15 0 8 -9 15 -20 15 -11
0 -20 -7 -20 -15z"/>
<path d="M3153 3770 c-41 -24 -73 -87 -80 -155 -10 -94 30 -164 106 -185 48
-13 111 -4 111 16 0 10 -6 11 -31 2 -39 -13 -96 2 -127 35 -26 28 -42 103 -32
155 15 86 66 132 145 132 63 0 110 -44 120 -114 10 -65 -11 -121 -45 -121 -24
0 -25 3 -28 77 -2 68 -6 79 -24 89 -17 9 -28 8 -54 -6 -38 -20 -54 -52 -54
-106 0 -71 30 -96 82 -68 14 8 23 8 31 0 18 -18 65 -12 86 11 56 60 27 214
-47 247 -38 18 -123 13 -159 -9z m113 -147 c-4 -41 -12 -63 -27 -75 -39 -33
-64 1 -49 67 11 47 27 65 58 65 24 0 25 -1 18 -57z"/>
<path d="M5122 3770 c-72 -44 -103 -180 -62 -266 32 -65 90 -92 164 -78 50 9
46 27 -4 19 -55 -9 -123 23 -141 68 -20 46 -15 137 10 186 26 49 64 71 127 71
62 0 109 -44 119 -114 10 -65 -11 -121 -45 -121 -24 0 -25 2 -28 82 -3 76 -4
81 -27 87 -55 14 -105 -41 -105 -114 0 -72 29 -97 82 -69 14 8 23 8 31 0 18
-18 65 -12 86 11 26 27 35 75 26 135 -5 36 -16 56 -45 85 -35 35 -42 38 -96
38 -41 0 -69 -6 -92 -20z m114 -147 c-4 -41 -12 -63 -27 -75 -39 -33 -67 8
-49 71 13 45 28 61 58 61 24 0 25 -1 18 -57z"/>
<path d="M1820 3756 c0 -15 -7 -26 -20 -29 -11 -3 -20 -10 -20 -15 0 -5 9 -12
20 -15 18 -5 20 -14 20 -84 0 -84 8 -103 47 -103 28 0 31 26 3 33 -18 5 -20
14 -20 81 0 69 2 76 20 76 11 0 20 5 20 11 0 6 -9 13 -20 16 -13 3 -20 14 -20
29 0 15 -6 24 -15 24 -9 0 -15 -9 -15 -24z"/>
<path d="M6850 3754 c0 -17 -6 -28 -20 -31 -11 -3 -20 -9 -20 -14 0 -5 9 -9
20 -9 18 0 20 -7 20 -83 0 -89 8 -107 47 -107 28 0 31 26 3 33 -18 5 -20 14
-20 81 0 69 2 76 20 76 11 0 20 4 20 9 0 5 -9 11 -20 14 -14 3 -20 14 -20 31
0 16 -6 26 -15 26 -9 0 -15 -10 -15 -26z"/>
<path d="M1399 3701 c-25 -25 -29 -37 -29 -84 0 -49 3 -58 31 -81 21 -18 42
-26 67 -26 38 1 72 19 72 39 0 14 -23 14 -37 0 -19 -19 -76 -6 -90 20 -6 14
-10 29 -7 33 3 4 37 8 76 8 l71 0 -6 38 c-13 78 -93 107 -148 53z m101 -20
c18 -34 12 -41 -40 -41 -37 0 -50 4 -50 14 0 41 71 62 90 27z"/>
<path d="M1623 3720 c-26 -10 -41 -56 -26 -79 5 -9 32 -23 59 -32 41 -13 49
-20 49 -40 0 -35 -58 -40 -85 -7 -14 18 -21 20 -31 11 -9 -9 -6 -17 14 -37 50
-50 147 -25 147 38 0 26 -31 51 -76 62 -44 10 -55 23 -43 45 13 26 53 24 79
-3 15 -16 23 -19 31 -11 9 9 5 18 -14 37 -27 27 -63 32 -104 16z"/>
<path d="M1947 3723 c-4 -3 -7 -53 -7 -110 0 -85 3 -103 15 -103 12 0 15 15
15 75 0 62 4 79 20 95 11 11 27 20 35 20 8 0 15 7 15 15 0 18 -31 20 -49 3
-11 -10 -14 -10 -18 0 -5 13 -16 16 -26 5z"/>
<path d="M2105 3719 c-34 -21 -46 -49 -21 -49 7 0 19 7 26 16 8 9 25 14 44 12
25 -2 32 -8 34 -30 3 -26 1 -28 -36 -28 -76 0 -118 -64 -72 -110 23 -23 79
-27 99 -7 11 10 14 10 18 0 3 -7 12 -13 21 -13 15 0 16 10 12 87 -3 49 -10 96
-16 106 -13 23 -81 32 -109 16z m85 -128 c0 -36 -20 -53 -57 -49 -22 2 -29 9
-31 31 -4 29 19 45 66 46 18 1 22 -4 22 -28z"/>
<path d="M2297 3723 c-4 -3 -7 -53 -7 -110 0 -85 3 -103 15 -103 12 0 15 15
15 73 0 81 16 117 54 117 38 0 46 -19 46 -107 0 -76 2 -83 20 -83 18 0 20 7
20 80 0 43 -5 91 -12 105 -14 31 -51 42 -92 26 -20 -7 -32 -8 -34 -1 -4 11
-16 13 -25 3z"/>
<path d="M2778 3710 c-16 -12 -28 -26 -28 -31 0 -14 26 -11 40 6 18 22 67 19
80 -5 15 -29 7 -37 -47 -43 -32 -3 -53 -12 -65 -27 -23 -29 -23 -41 3 -74 22
-28 64 -35 100 -16 13 7 19 7 19 0 0 -5 9 -10 21 -10 15 0 19 4 15 16 -3 9 -6
48 -6 88 0 86 -11 105 -65 113 -31 4 -46 0 -67 -17z m100 -113 c5 -27 -27 -57
-59 -57 -22 0 -30 6 -35 26 -7 28 0 39 31 47 35 9 60 3 63 -16z"/>
<path d="M3480 3718 c-32 -17 -54 -77 -46 -124 15 -79 99 -112 151 -59 14 13
25 29 25 35 0 17 -21 11 -39 -11 -19 -23 -62 -29 -85 -10 -21 18 -27 79 -11
117 12 30 19 34 49 34 25 0 38 -6 46 -20 6 -11 17 -20 25 -20 41 0 -9 59 -55
66 -19 2 -46 -1 -60 -8z"/>
<path d="M3690 3718 c-28 -15 -40 -48 -17 -48 8 0 17 7 21 15 5 15 42 20 70 9
9 -3 16 -17 16 -30 0 -21 -5 -24 -39 -24 -74 0 -120 -71 -73 -113 22 -20 73
-22 90 -5 9 9 15 9 24 0 7 -7 18 -12 25 -12 17 0 8 179 -10 198 -20 19 -79 25
-107 10z m90 -126 c0 -35 -16 -52 -51 -52 -33 0 -53 22 -44 49 6 21 22 28 68
30 23 1 27 -3 27 -27z"/>
<path d="M3931 3721 c-7 -5 -22 -6 -32 -4 -18 5 -19 -2 -19 -101 0 -88 3 -106
15 -106 12 0 15 15 15 78 0 87 4 96 43 111 16 6 25 15 22 21 -8 12 -25 13 -44
1z"/>
<path d="M4206 3723 c-3 -3 -6 -44 -6 -90 0 -70 3 -86 20 -103 21 -21 65 -26
90 -10 9 6 17 5 21 -2 4 -6 14 -8 23 -5 13 5 16 24 16 107 0 93 -1 100 -20
100 -18 0 -20 -7 -20 -78 0 -85 -8 -102 -50 -102 -42 0 -50 17 -50 101 0 72
-8 98 -24 82z"/>
<path d="M4771 3716 c-49 -27 -65 -99 -36 -156 18 -35 43 -50 83 -50 31 0 82
33 70 46 -4 4 -14 1 -22 -5 -8 -7 -32 -11 -53 -9 -28 2 -41 9 -50 27 -6 14
-10 29 -7 33 3 4 37 8 76 8 l71 0 -6 38 c-11 66 -71 99 -126 68z m76 -28 c30
-39 24 -48 -32 -48 -46 0 -55 3 -55 18 0 10 5 23 12 30 16 16 63 15 75 0z"/>
<path d="M5979 3715 c-45 -25 -62 -101 -34 -155 18 -35 43 -50 83 -50 32 0 82
33 69 46 -4 4 -13 2 -19 -4 -16 -16 -81 -15 -96 0 -7 7 -12 22 -12 35 0 22 4
23 71 23 l72 0 -6 38 c-7 42 -46 82 -80 82 -12 -1 -34 -7 -48 -15z m78 -27
c30 -39 24 -48 -32 -48 -41 0 -55 4 -55 14 0 37 65 62 87 34z"/>
<path d="M6440 3720 c-8 -5 -25 -7 -37 -3 -23 5 -23 4 -23 -101 0 -99 1 -106
20 -106 18 0 20 7 20 86 l0 86 30 11 c17 6 30 17 30 24 0 15 -19 17 -40 3z"/>
<path d="M6643 3706 c-24 -21 -26 -27 -18 -52 9 -24 20 -32 62 -43 34 -9 55
-20 58 -32 9 -29 -3 -39 -45 -39 -29 0 -42 5 -50 20 -14 25 -30 26 -30 1 0
-48 97 -69 139 -30 14 14 21 30 19 47 -2 22 -13 31 -56 48 -67 27 -79 38 -62
59 18 21 62 19 83 -5 21 -25 42 -17 27 10 -24 45 -84 52 -127 16z"/>
<path d="M6989 3702 c-27 -24 -32 -36 -33 -74 -1 -53 17 -92 51 -107 75 -34
139 15 137 107 -1 38 -6 50 -33 74 -19 17 -43 28 -61 28 -18 0 -42 -11 -61
-28z m103 -19 c23 -20 24 -90 2 -121 -18 -26 -60 -29 -86 -5 -24 21 -25 99 -1
125 20 22 61 23 85 1z"/>
<path d="M4415 3691 c18 -84 52 -176 65 -176 8 0 21 28 34 73 11 39 25 71 31
69 5 -2 19 -35 31 -73 31 -99 45 -95 77 25 32 117 31 111 13 111 -9 0 -19 -20
-26 -52 -26 -110 -29 -112 -56 -25 -16 48 -30 77 -39 77 -8 0 -23 -27 -36 -70
-13 -38 -26 -70 -30 -70 -4 0 -15 32 -24 70 -12 47 -22 70 -32 70 -11 0 -13
-7 -8 -29z"/>
<path d="M5410 3637 c0 -103 13 -127 70 -127 21 0 42 5 45 10 5 8 11 7 20 0
27 -22 35 1 35 101 0 92 -1 99 -20 99 -18 0 -20 -7 -20 -78 0 -86 -8 -102 -52
-102 -36 0 -48 28 -48 116 0 50 -3 64 -15 64 -12 0 -15 -16 -15 -83z"/>
<path d="M5620 3713 c1 -33 59 -198 69 -198 7 0 23 32 36 73 13 41 26 76 28
79 3 2 17 -32 32 -76 15 -45 32 -81 39 -81 7 0 24 41 39 93 31 106 32 117 14
117 -7 0 -20 -29 -31 -70 -10 -38 -21 -70 -25 -70 -4 0 -17 32 -30 70 -13 43
-28 70 -36 70 -9 0 -22 -27 -35 -70 -11 -38 -24 -70 -28 -70 -4 0 -16 32 -26
70 -11 45 -23 70 -32 70 -8 0 -14 -3 -14 -7z"/>
<path d="M6520 3615 c0 -98 1 -105 20 -105 19 0 20 7 20 105 0 98 -1 105 -20
105 -19 0 -20 -7 -20 -105z"/>
<path d="M730 3550 c-47 -11 -99 -19 -116 -20 -46 0 -49 -12 -7 -27 52 -18 53
-17 139 22 42 19 80 33 85 29 21 -12 6 -32 -41 -54 -27 -13 -48 -25 -46 -27 2
-2 26 6 52 19 39 19 49 28 49 48 0 32 -11 32 -115 10z"/>
<path d="M3982 3498 c3 -9 33 -14 91 -16 73 -2 87 0 87 13 0 12 -16 15 -91 15
-68 0 -90 -3 -87 -12z"/>
<path d="M710 3460 c-9 -6 -10 -10 -3 -10 6 0 15 5 18 10 8 12 4 12 -15 0z"/>
<path d="M660 3440 c-8 -5 -10 -10 -5 -10 6 0 17 5 25 10 8 5 11 10 5 10 -5 0
-17 -5 -25 -10z"/>
<path d="M557 3243 c2 -32 6 -64 9 -70 5 -18 110 -17 117 0 12 33 19 127 9
127 -6 0 -13 -9 -17 -19 -12 -38 -95 -38 -95 0 0 10 -6 19 -14 19 -12 0 -13
-12 -9 -57z"/>
<path d="M4203 3253 c-10 -3 -13 -44 -13 -154 0 -142 1 -149 20 -149 19 0 20
7 20 149 0 83 -3 152 -7 154 -5 2 -14 2 -20 0z"/>
<path d="M5326 3253 c-3 -3 -6 -28 -6 -55 0 -26 -2 -48 -4 -48 -1 0 -16 5 -33
10 -77 27 -138 -63 -104 -153 18 -47 38 -57 107 -55 l64 2 0 147 c0 135 -6
170 -24 152z m-26 -133 c35 -35 22 -132 -20 -145 -13 -4 -31 0 -45 9 -49 32
-25 156 30 156 8 0 24 -9 35 -20z"/>
<path d="M6460 3199 c0 -43 -3 -50 -16 -45 -49 19 -62 17 -95 -12 -28 -25 -33
-35 -33 -80 -1 -37 5 -58 20 -79 19 -26 27 -28 88 -29 l66 -1 0 148 c0 126 -2
149 -15 149 -11 0 -15 -12 -15 -51z m-22 -75 c18 -12 22 -25 22 -69 0 -46 -4
-57 -23 -69 -47 -31 -87 4 -87 78 0 34 15 60 40 69 23 8 24 8 48 -9z"/>
<path d="M8360 3100 c0 -143 1 -150 20 -150 19 0 20 7 20 150 0 143 -1 150
-20 150 -19 0 -20 -7 -20 -150z"/>
<path d="M920 3096 c0 -139 1 -146 20 -146 18 0 20 7 20 55 l0 55 33 0 c116 0
174 76 113 147 -22 25 -31 28 -105 31 l-81 4 0 -146z m148 98 c14 -10 22 -26
22 -44 0 -38 -32 -60 -87 -60 l-43 0 0 60 0 60 43 0 c23 0 53 -7 65 -16z"/>
<path d="M1174 3229 c-8 -14 11 -33 25 -25 6 4 11 14 11 22 0 16 -26 19 -36 3z"/>
<path d="M1952 3223 c2 -10 10 -18 18 -18 8 0 16 8 18 18 2 12 -3 17 -18 17
-15 0 -20 -5 -18 -17z"/>
<path d="M3180 3096 c0 -139 1 -146 20 -146 18 0 20 7 20 55 l0 55 40 0 c110
0 166 77 106 147 -22 25 -31 28 -105 31 l-81 4 0 -146z m148 98 c14 -10 22
-26 22 -44 0 -38 -32 -60 -87 -60 l-43 0 0 60 0 60 43 0 c23 0 53 -7 65 -16z"/>
<path d="M3650 3220 c0 -23 25 -27 33 -6 7 16 -1 26 -20 26 -7 0 -13 -9 -13
-20z"/>
<path d="M4760 3220 c0 -11 7 -20 15 -20 8 0 15 9 15 20 0 11 -7 20 -15 20 -8
0 -15 -9 -15 -20z"/>
<path d="M5740 3094 c0 -133 1 -145 18 -142 15 3 17 15 15 106 -1 56 1 102 5
102 4 0 25 -46 47 -102 25 -64 46 -104 56 -106 11 -2 25 19 48 75 62 153 60
152 60 31 1 -101 2 -108 21 -108 19 0 20 7 20 145 l0 145 -24 0 c-25 0 -32
-14 -102 -188 -9 -24 -20 -40 -24 -35 -4 4 -26 56 -50 116 -38 94 -46 107 -66
107 l-24 0 0 -146z"/>
<path d="M7448 3234 c-5 -4 -8 -70 -8 -146 l0 -138 75 0 c67 0 79 3 100 25 31
30 33 77 4 106 -19 19 -19 22 -5 38 23 25 20 74 -5 97 -14 13 -40 20 -87 22
-37 2 -70 0 -74 -4z m133 -43 c20 -16 22 -22 12 -44 -12 -27 -67 -45 -98 -33
-15 5 -22 76 -8 89 13 14 72 6 94 -12z m20 -137 c4 -12 2 -31 -5 -45 -10 -20
-20 -25 -64 -27 l-52 -3 0 51 0 51 56 -3 c47 -2 58 -7 65 -24z"/>
<path d="M8262 3223 c2 -10 10 -18 18 -18 8 0 16 8 18 18 2 12 -3 17 -18 17
-15 0 -20 -5 -18 -17z"/>
<path d="M1320 3158 c-40 -21 -63 -77 -51 -129 13 -59 42 -81 100 -77 39 3 49
8 69 38 61 89 -27 214 -118 168z m80 -38 c42 -42 16 -150 -35 -150 -27 0 -65
47 -65 80 0 76 55 115 100 70z"/>
<path d="M1575 3161 c-11 -5 -33 -6 -48 -4 l-28 6 3 -104 c3 -90 5 -104 21
-107 15 -3 17 6 17 77 0 71 2 82 22 95 54 38 78 9 78 -95 0 -64 3 -79 15 -79
12 0 15 16 15 88 0 55 -5 94 -12 105 -16 20 -56 29 -83 18z"/>
<path d="M1784 3160 c-36 -14 -54 -50 -54 -108 0 -70 29 -102 92 -102 46 1 84
21 73 40 -5 8 -14 6 -32 -5 -15 -10 -34 -14 -49 -11 -27 7 -59 50 -49 66 3 5
38 10 76 10 l71 0 -7 33 c-11 48 -23 67 -51 77 -30 12 -42 12 -70 0z m68 -37
c33 -30 23 -43 -37 -43 -55 0 -55 0 -44 23 22 40 50 48 81 20z"/>
<path d="M2110 3160 c-8 -5 -25 -7 -37 -3 -23 5 -23 4 -23 -102 0 -96 2 -106
18 -103 14 3 17 15 19 68 1 36 2 73 2 83 1 11 12 20 31 24 21 4 30 11 30 24 0
21 -16 24 -40 9z"/>
<path d="M2225 3161 c-30 -13 -50 -40 -38 -52 6 -6 18 -2 33 11 36 31 75 24
82 -15 2 -16 -5 -20 -47 -27 -75 -11 -104 -56 -70 -105 14 -20 24 -22 88 -21
l72 2 -3 85 c-3 63 -8 91 -20 103 -21 21 -70 31 -97 19z m85 -130 c0 -29 -46
-62 -73 -52 -25 9 -35 50 -15 62 7 5 30 9 51 9 30 0 37 -4 37 -19z"/>
<path d="M2550 3158 c-61 -31 -75 -134 -25 -184 31 -31 103 -34 129 -5 23 25
4 37 -26 17 -31 -22 -45 -20 -73 9 -44 43 -34 55 45 55 l70 0 0 33 c0 58 -68
101 -120 75z m74 -40 c24 -34 20 -38 -39 -38 -59 0 -67 8 -35 40 26 26 55 25
74 -2z"/>
<path d="M2785 3160 c-11 -4 -32 -5 -47 -3 l-28 5 1 -106 c2 -96 3 -106 20
-106 17 0 19 9 19 79 0 84 12 111 50 111 38 0 50 -27 50 -111 0 -64 3 -79 15
-79 12 0 15 15 15 75 0 62 4 79 20 95 23 23 33 24 61 10 16 -9 19 -22 19 -95
0 -78 2 -85 20 -85 18 0 20 7 20 78 0 42 -6 88 -13 101 -17 35 -59 46 -97 27
-26 -13 -34 -13 -58 0 -30 16 -38 16 -67 4z"/>
<path d="M3480 3163 c-47 -18 -65 -68 -35 -93 8 -6 33 -18 57 -24 53 -16 71
-41 44 -62 -27 -20 -52 -18 -77 7 -11 11 -27 19 -36 17 -12 -2 -11 -8 7 -30
18 -24 29 -28 69 -28 55 0 81 21 81 63 0 28 -5 31 -92 66 -46 18 -33 61 18 61
8 0 22 -9 31 -20 20 -23 43 -26 43 -7 0 33 -72 65 -110 50z"/>
<path d="M3794 3160 c-36 -14 -54 -50 -54 -106 0 -69 31 -104 90 -104 47 0
102 42 81 63 -7 7 -17 3 -35 -16 -29 -31 -43 -33 -73 -12 -28 19 -38 66 -23
109 17 52 76 61 100 15 11 -19 40 -27 40 -10 0 6 -10 21 -22 35 -25 29 -72 40
-104 26z"/>
<path d="M4015 3161 c-41 -18 -60 -50 -60 -106 0 -71 29 -105 90 -105 53 0 82
21 95 71 13 46 1 96 -28 122 -22 19 -71 28 -97 18z m74 -47 c29 -37 27 -89 -4
-119 -29 -30 -49 -31 -75 -5 -14 14 -20 33 -20 65 0 77 58 111 99 59z"/>
<path d="M4340 3158 c-61 -32 -74 -135 -23 -185 19 -20 32 -24 70 -21 41 3 50
7 71 38 61 89 -27 214 -118 168z m80 -38 c14 -14 20 -33 20 -65 0 -42 -24 -85
-47 -85 -47 1 -73 35 -73 95 0 39 29 75 60 75 11 0 29 -9 40 -20z"/>
<path d="M4563 3158 c-47 -23 -61 -129 -25 -178 17 -21 27 -25 71 -25 46 1 52
-1 49 -19 -2 -11 -15 -27 -31 -36 -25 -14 -30 -13 -56 2 -28 15 -41 14 -41 -3
0 -5 14 -16 32 -25 26 -13 38 -14 69 -5 21 7 44 22 51 34 7 12 13 73 15 139
l3 118 -32 -1 c-18 0 -44 2 -58 5 -14 3 -35 0 -47 -6z m75 -34 c18 -12 22 -25
22 -69 0 -47 -3 -57 -25 -71 -53 -34 -98 25 -80 105 10 48 44 62 83 35z"/>
<path d="M4901 3158 c-28 -15 -48 -44 -38 -54 4 -4 17 2 30 14 37 35 87 24 87
-19 0 -12 -12 -18 -45 -22 -54 -6 -85 -30 -85 -67 0 -45 27 -60 103 -58 l67 2
0 82 c0 63 -4 87 -17 103 -23 26 -71 35 -102 19z m77 -135 c-6 -55 -88 -63
-88 -9 0 31 7 36 52 36 37 0 39 -2 36 -27z"/>
<path d="M5455 3161 c-30 -13 -50 -40 -38 -52 6 -6 18 -2 33 11 29 25 66 26
80 1 17 -33 12 -41 -26 -41 -36 0 -73 -15 -86 -34 -4 -6 -8 -25 -8 -43 0 -42
21 -53 102 -51 l64 1 -4 86 c-3 62 -9 91 -21 103 -20 21 -69 31 -96 19z m83
-138 c-6 -53 -98 -66 -98 -15 0 28 21 42 63 42 36 0 38 -2 35 -27z"/>
<path d="M6140 3158 c-61 -32 -75 -134 -25 -184 50 -50 143 -21 161 50 22 89
-62 172 -136 134z m80 -38 c32 -32 23 -117 -14 -142 -41 -27 -86 13 -86 77 0
50 25 85 60 85 11 0 29 -9 40 -20z"/>
<path d="M6594 3156 c-35 -15 -53 -46 -28 -46 8 0 22 7 30 15 30 29 84 13 84
-26 0 -12 -12 -18 -45 -22 -55 -6 -85 -30 -85 -68 0 -46 22 -59 101 -57 l70 1
-4 89 c-3 59 -9 95 -18 104 -21 21 -70 26 -105 10z m84 -133 c-5 -49 -80 -65
-93 -21 -10 29 13 48 57 48 37 0 39 -2 36 -27z"/>
<path d="M6945 3160 c-11 -4 -30 -6 -42 -3 -23 5 -23 4 -23 -101 0 -86 3 -106
15 -106 11 0 15 18 17 82 3 78 4 83 30 98 49 27 63 7 66 -94 2 -76 5 -87 20
-84 15 3 17 15 14 93 -2 52 -8 95 -15 102 -17 17 -58 24 -82 13z"/>
<path d="M7155 3156 c-60 -26 -76 -132 -29 -180 40 -39 103 -37 138 5 48 56
28 156 -35 178 -39 13 -37 13 -74 -3z m81 -37 c29 -32 26 -105 -5 -130 -13
-10 -29 -19 -36 -19 -7 0 -23 9 -36 19 -19 15 -24 29 -24 66 0 37 5 51 24 66
30 25 53 24 77 -2z"/>
<path d="M7760 3160 c-8 -5 -24 -7 -36 -4 -28 7 -31 -4 -30 -111 1 -77 3 -90
19 -93 15 -3 17 6 17 76 0 82 6 96 45 104 11 2 20 10 20 17 0 18 -16 23 -35
11z"/>
<path d="M7864 3156 c-31 -14 -50 -41 -35 -51 5 -2 20 4 34 15 41 32 87 21 87
-21 0 -12 -12 -18 -45 -22 -54 -6 -85 -30 -85 -67 0 -45 27 -60 103 -58 l67 2
0 71 c0 92 -7 113 -41 130 -34 18 -45 18 -85 1z m84 -133 c-5 -49 -80 -65 -93
-21 -10 29 13 48 57 48 37 0 39 -2 36 -27z"/>
<path d="M8083 3160 c-12 -5 -27 -19 -33 -31 -20 -36 1 -66 57 -82 58 -17 77
-42 48 -63 -23 -17 -65 -10 -78 12 -10 18 -37 18 -37 0 0 -24 41 -46 85 -46
46 0 57 6 74 38 19 35 -8 69 -65 83 -49 13 -64 30 -44 54 17 21 47 19 67 -5
20 -23 43 -26 43 -7 0 36 -74 65 -117 47z"/>
<path d="M1177 3088 c-8 -100 -4 -132 16 -136 15 -3 17 8 17 102 0 84 -3 106
-14 106 -10 0 -15 -20 -19 -72z"/>
<path d="M1950 3055 c0 -98 1 -105 20 -105 19 0 20 7 20 105 0 98 -1 105 -20
105 -19 0 -20 -7 -20 -105z"/>
<path d="M3650 3055 c0 -87 3 -105 15 -105 12 0 15 18 15 105 0 87 -3 105 -15
105 -12 0 -15 -18 -15 -105z"/>
<path d="M4760 3055 c0 -87 3 -105 15 -105 12 0 15 18 15 105 0 87 -3 105 -15
105 -12 0 -15 -18 -15 -105z"/>
<path d="M8260 3055 c0 -98 1 -105 20 -105 19 0 20 7 20 105 0 98 -1 105 -20
105 -19 0 -20 -7 -20 -105z"/>
<path d="M520 3054 c-48 -100 -59 -142 -39 -147 8 -2 43 -14 79 -25 l66 -22
59 19 c33 11 73 22 88 25 42 10 43 31 4 78 -19 24 -47 68 -61 99 l-26 57 -65
1 -65 1 -40 -86z"/>
<path d="M475 2678 c11 -6 41 -26 68 -45 l47 -35 0 46 0 46 -67 0 c-56 -1 -64
-3 -48 -12z"/>
<path d="M808 2660 c-18 -16 -28 -30 -22 -30 5 0 23 14 39 30 37 39 25 39 -17
0z"/>
<path d="M943 2676 l-31 -14 -1 -152 -2 -153 23 7 c55 17 112 17 208 1 109
-18 178 -15 216 10 21 14 22 21 20 107 -2 51 -4 119 -5 150 l-1 56 -37 -10
c-23 -6 -73 -8 -123 -4 -207 16 -235 17 -267 2z m20 -53 c-3 -7 -9 -13 -14
-13 -5 0 -10 -10 -10 -22 -2 -23 -2 -23 -6 0 -3 15 2 29 14 37 17 14 17 14 -2
15 -16 0 -17 2 -5 10 17 10 31 -6 23 -27z m223 -1 c17 -15 59 -43 92 -62 34
-19 62 -38 62 -42 0 -9 -108 -80 -156 -101 l-41 -19 -59 40 c-33 21 -78 50
-101 62 -24 13 -43 27 -43 30 0 17 173 120 200 120 8 0 29 -13 46 -28z"/>
<path d="M1104 2600 c-26 -10 -40 -30 -22 -30 8 0 6 -5 -4 -11 -42 -24 -3
-100 58 -115 93 -24 120 114 30 151 -20 8 -37 15 -38 14 -2 0 -13 -4 -24 -9z
m67 -62 c22 -12 39 -26 39 -31 0 -4 -12 0 -27 11 -16 10 -41 24 -58 30 -19 7
-23 11 -11 11 10 1 36 -9 57 -21z"/>
<path d="M2010 2540 c0 -127 2 -150 15 -150 12 0 15 15 15 73 0 89 12 110 60
105 l35 -3 3 -87 c2 -69 6 -88 17 -88 22 0 21 172 -1 194 -17 18 -79 22 -89 6
-15 -24 -25 -6 -25 45 0 42 -3 55 -15 55 -13 0 -15 -23 -15 -150z"/>
<path d="M3676 2674 c-9 -8 -16 -29 -16 -45 0 -22 -5 -29 -20 -29 -11 0 -20
-5 -20 -11 0 -6 9 -13 20 -16 18 -5 20 -14 20 -94 0 -72 3 -89 15 -89 12 0 15
17 15 89 0 85 1 90 23 93 27 4 26 22 -3 26 -39 6 -19 72 22 72 10 0 18 5 18
10 0 16 -57 12 -74 -6z"/>
<path d="M4125 2680 c-4 -6 -6 -27 -5 -48 3 -53 1 -57 -12 -44 -13 13 -56 16
-83 6 -25 -10 -45 -58 -45 -108 0 -61 32 -99 81 -97 19 0 49 1 67 2 l32 0 0
150 c0 123 -3 149 -14 149 -8 0 -18 -5 -21 -10z m-21 -116 c12 -5 16 -21 16
-70 0 -54 -3 -65 -21 -74 -51 -28 -96 19 -85 88 9 56 40 75 90 56z"/>
<path d="M5012 2538 c2 -110 6 -152 16 -156 9 -3 12 17 12 76 0 90 16 116 67
110 l28 -3 5 -90 c4 -71 8 -90 20 -90 12 0 16 17 18 84 4 105 -10 131 -68 131
-21 0 -42 -4 -45 -10 -10 -16 -26 -11 -24 8 5 53 -2 92 -16 92 -13 0 -15 -21
-13 -152z"/>
<path d="M5462 2538 c3 -136 5 -153 21 -156 16 -3 17 9 17 152 0 150 -1 156
-20 156 -20 0 -20 -5 -18 -152z"/>
<path d="M610 2620 l0 -60 -74 0 c-40 0 -88 -3 -105 -6 -27 -6 -31 -10 -31
-40 0 -32 1 -33 28 -23 30 12 155 15 172 4 5 -3 10 -32 10 -65 0 -54 8 -70 35
-70 2 0 5 28 7 62 l3 62 80 1 c98 1 135 15 135 50 0 14 -2 25 -4 25 -2 0 -28
-5 -57 -10 -30 -6 -78 -8 -106 -4 l-53 6 0 64 c0 57 -2 64 -20 64 -18 0 -20
-7 -20 -60z"/>
<path d="M670 2633 c0 -24 4 -43 8 -43 12 0 122 71 122 78 0 4 -29 7 -65 7
l-65 0 0 -42z"/>
<path d="M3086 2673 c-12 -12 -6 -33 9 -33 8 0 15 6 15 14 0 17 -14 28 -24 19z"/>
<path d="M4588 2664 c-30 -16 -44 -51 -34 -88 4 -17 21 -31 53 -46 89 -39 98
-46 101 -67 4 -25 -31 -53 -66 -53 -14 0 -36 13 -52 30 -30 32 -50 39 -50 17
0 -24 30 -56 66 -67 71 -24 137 10 137 70 0 41 -24 64 -92 89 -33 12 -62 29
-65 38 -11 27 21 63 54 63 29 0 70 -29 70 -50 0 -5 7 -10 15 -10 18 0 19 29 2
51 -30 40 -91 50 -139 23z"/>
<path d="M6063 2670 c-23 -10 -43 -39 -43 -64 0 -23 24 -19 35 6 22 48 89 50
101 2 9 -35 -4 -58 -76 -137 -82 -89 -78 -99 37 -95 58 2 88 7 91 16 3 9 -15
12 -67 12 -39 0 -71 4 -71 8 0 5 10 17 21 28 12 10 39 41 60 67 30 38 39 58
39 87 0 63 -61 96 -127 70z"/>
<path d="M6283 2656 c-26 -23 -28 -29 -31 -120 -4 -95 -4 -96 26 -126 21 -21
40 -30 62 -30 22 0 41 9 62 30 30 30 30 31 26 126 -3 91 -5 97 -31 120 -16 13
-41 24 -57 24 -16 0 -41 -11 -57 -24z m91 -21 c19 -20 30 -93 22 -150 -8 -49
-27 -75 -56 -75 -39 0 -50 26 -50 120 0 67 4 92 16 104 20 20 48 20 68 1z"/>
<path d="M6525 2668 c-42 -22 -63 -78 -30 -78 8 0 15 6 15 13 0 20 33 47 58
47 11 0 28 -7 36 -16 34 -34 15 -74 -85 -181 -62 -67 -56 -75 53 -71 62 2 93
7 96 16 3 9 -15 12 -67 12 -39 0 -71 4 -71 8 0 5 10 17 21 28 56 49 99 116 99
152 0 43 -7 55 -37 71 -27 14 -62 14 -88 -1z"/>
<path d="M6755 2668 c-27 -14 -45 -38 -45 -60 0 -28 23 -21 42 12 19 34 56 40
82 14 35 -34 18 -71 -82 -176 -64 -67 -56 -78 54 -75 59 1 89 6 92 15 3 9 -14
12 -60 12 -36 0 -68 3 -71 6 -4 4 17 32 45 63 61 67 82 110 69 145 -19 48 -80
70 -126 44z"/>
<path d="M7043 2667 c-5 -6 -29 -64 -53 -127 -24 -63 -49 -130 -57 -148 -13
-30 -12 -33 3 -30 11 2 34 49 71 143 30 77 57 145 59 151 8 17 -12 26 -23 11z"/>
<path d="M7155 2668 c-27 -14 -45 -38 -45 -60 0 -28 23 -21 42 12 29 51 98 37
98 -20 0 -30 -18 -58 -80 -123 -83 -89 -80 -97 40 -95 68 1 90 4 90 14 0 10
-17 14 -63 14 -35 0 -67 3 -70 6 -4 4 17 32 45 63 58 64 81 110 72 146 -11 44
-83 68 -129 43z"/>
<path d="M7385 2668 c-24 -14 -44 -39 -45 -55 0 -22 27 -14 44 12 18 27 63 34
84 13 30 -30 2 -88 -44 -88 -15 0 -24 -6 -24 -15 0 -8 9 -15 21 -15 39 0 59
-19 59 -55 0 -57 -62 -76 -98 -30 -24 30 -42 32 -42 5 0 -25 54 -60 93 -60 36
0 87 49 87 83 0 13 -9 35 -19 48 -17 22 -17 27 -5 44 8 10 14 33 14 51 0 57
-71 93 -125 62z"/>
<path d="M400 2654 c0 -7 8 -14 18 -14 9 0 37 -11 61 -25 23 -14 48 -25 54
-25 16 0 -52 45 -96 64 -32 13 -37 13 -37 0z"/>
<path d="M1520 2651 c-19 -10 -48 -39 -64 -65 -57 -91 -34 -231 44 -271 33
-17 117 -20 140 -5 18 11 13 12 -61 10 -50 -1 -59 2 -87 30 -36 35 -47 80 -39
152 9 71 34 109 89 132 41 17 50 17 89 5 61 -20 89 -64 89 -140 0 -46 -5 -64
-20 -79 -24 -24 -33 -25 -50 -5 -9 11 -11 33 -6 76 8 69 -2 89 -43 89 -68 0
-120 -131 -72 -179 25 -25 44 -27 65 -6 14 14 18 14 40 0 32 -21 73 -10 91 26
24 45 19 139 -8 180 -43 65 -129 87 -197 50z m100 -138 c0 -63 -18 -98 -50
-98 -23 0 -25 5 -28 46 -3 51 25 99 59 99 16 0 19 -7 19 -47z"/>
<path d="M815 2610 c-41 -42 -35 -49 24 -29 25 9 31 16 31 40 0 16 -4 29 -8
29 -4 0 -26 -18 -47 -40z"/>
<path d="M400 2600 c0 -28 2 -30 28 -24 55 13 60 22 20 38 -49 21 -48 21 -48
-14z"/>
<path d="M730 2600 c-19 -16 -32 -30 -27 -30 11 0 77 44 77 53 0 13 -15 7 -50
-23z"/>
<path d="M1815 2574 c-20 -22 -25 -38 -25 -79 0 -61 24 -100 69 -110 44 -9
101 25 101 61 0 11 -22 2 -40 -16 -45 -45 -100 -10 -100 63 0 59 14 77 60 77
30 0 40 -5 45 -20 7 -22 35 -28 35 -7 0 8 -10 23 -23 35 -34 32 -91 30 -122
-4z"/>
<path d="M2267 2589 c-39 -23 -58 -104 -36 -153 24 -51 117 -70 150 -30 16 20
2 31 -21 16 -28 -17 -64 -15 -83 6 -17 19 -24 63 -9 61 4 -1 35 -1 70 0 55 1
62 3 62 21 0 29 -26 76 -45 84 -25 9 -68 7 -88 -5z m85 -28 c3 -3 8 -15 10
-26 3 -18 -3 -20 -49 -23 -47 -3 -53 -1 -53 17 0 38 62 60 92 32z"/>
<path d="M2420 2593 c0 -28 70 -199 83 -201 10 -2 25 26 51 98 42 117 40 110
22 110 -9 0 -24 -30 -41 -80 -15 -44 -28 -80 -30 -80 -2 0 -15 36 -30 80 -17
50 -32 80 -41 80 -8 0 -14 -3 -14 -7z"/>
<path d="M2655 2576 c-52 -52 -41 -152 21 -181 38 -18 85 -13 105 11 16 20 5
28 -19 15 -48 -26 -102 0 -102 47 0 21 5 22 70 22 66 0 70 1 70 23 0 12 -9 37
-20 55 -17 28 -25 32 -60 32 -30 0 -47 -7 -65 -24z m106 -33 c5 -13 9 -26 9
-29 0 -2 -25 -4 -56 -4 -52 0 -55 2 -52 22 4 26 41 48 70 40 11 -2 24 -16 29
-29z"/>
<path d="M2846 2554 c-3 -26 -6 -73 -6 -105 0 -52 2 -59 20 -59 18 0 20 7 20
78 0 85 8 102 50 102 42 0 50 -17 50 -102 0 -63 3 -78 15 -78 22 0 21 156 -1
188 -16 24 -61 30 -94 12 -13 -7 -21 -7 -25 0 -13 21 -22 9 -29 -36z"/>
<path d="M3080 2495 c0 -87 3 -105 15 -105 12 0 15 18 15 105 0 87 -3 105 -15
105 -12 0 -15 -18 -15 -105z"/>
<path d="M3180 2495 c0 -87 3 -105 15 -105 12 0 15 15 15 79 0 89 9 104 62 99
l33 -3 3 -87 c2 -69 6 -88 17 -88 12 0 15 18 15 88 0 73 -3 92 -18 105 -22 20
-72 22 -91 5 -11 -10 -14 -10 -18 0 -3 6 -11 12 -19 12 -11 0 -14 -21 -14
-105z"/>
<path d="M3420 2568 c-28 -47 -27 -119 3 -154 24 -27 64 -36 100 -20 14 7 17
3 17 -16 0 -32 -18 -48 -55 -48 -17 0 -36 5 -43 12 -9 9 -15 9 -23 1 -8 -8 -3
-15 19 -27 43 -22 76 -20 109 8 27 24 28 27 31 141 3 78 0 121 -8 129 -8 8
-13 7 -20 -4 -7 -12 -12 -12 -22 -2 -6 6 -29 12 -50 12 -32 0 -41 -5 -58 -32z
m104 -4 c12 -5 16 -21 16 -70 0 -59 -2 -65 -25 -76 -38 -17 -71 2 -79 47 -15
79 25 123 88 99z"/>
<path d="M3790 2570 c-76 -107 40 -250 130 -160 11 11 20 25 20 30 0 16 -18
12 -40 -10 -46 -46 -100 -13 -100 61 0 77 49 111 95 65 28 -29 45 -33 45 -13
0 28 -45 57 -87 57 -35 0 -45 -5 -63 -30z"/>
<path d="M4236 2570 c-19 -24 -26 -43 -26 -76 0 -55 21 -90 64 -104 94 -31
162 83 103 171 -19 29 -29 34 -69 37 -40 3 -48 0 -72 -28z m112 -13 c34 -40
19 -132 -23 -143 -34 -8 -60 3 -73 32 -29 62 -3 124 52 124 19 0 38 -6 44 -13z"/>
<path d="M4819 2581 c-18 -14 -23 -31 -27 -79 -4 -58 -3 -63 26 -92 36 -36 77
-39 116 -9 29 22 35 49 11 49 -8 0 -15 -4 -15 -10 0 -16 -40 -32 -65 -26 -42
11 -58 102 -24 143 17 20 67 16 81 -7 16 -26 38 -26 38 -1 0 47 -96 69 -141
32z"/>
<path d="M5263 2585 c-50 -35 -54 -132 -7 -176 31 -29 93 -32 123 -5 49 45 49
146 -2 181 -27 19 -86 19 -114 0z m101 -37 c31 -44 12 -124 -31 -134 -14 -4
-33 0 -48 10 -21 14 -25 25 -25 61 0 25 6 54 12 65 18 28 72 27 92 -2z"/>
<path d="M5587 2582 c-18 -20 -22 -42 -8 -42 5 0 14 6 20 14 28 34 95 22 89
-16 -2 -19 -11 -24 -49 -28 -26 -3 -54 -12 -63 -19 -22 -19 -20 -67 4 -91 22
-22 46 -25 84 -10 16 6 27 6 31 0 4 -6 13 -10 22 -10 24 0 15 170 -11 199 -25
28 -96 29 -119 3z m103 -116 c0 -24 -32 -56 -57 -56 -13 0 -43 27 -43 40 0 20
34 40 66 40 29 0 34 -3 34 -24z"/>
<path d="M5787 2586 c-2 -6 -3 -54 -3 -106 1 -77 4 -95 16 -95 12 0 16 18 20
84 5 85 8 91 53 105 9 3 17 10 17 15 0 13 -98 10 -103 -3z"/>
<path d="M433 2468 c-28 -9 -33 -16 -33 -43 l0 -33 40 40 c53 53 53 55 -7 36z"/>
<path d="M494 2437 c-64 -47 -93 -77 -76 -77 6 0 13 4 16 8 2 4 39 6 80 5 l76
-4 0 46 0 45 -37 -20 c-21 -11 -48 -27 -61 -36 -18 -14 -21 -14 -17 -2 3 8 24
25 45 37 40 22 59 41 42 41 -6 0 -36 -19 -68 -43z"/>
<path d="M818 2466 c-46 -12 -48 -21 -7 -35 47 -16 59 -14 59 13 0 32 -7 34
-52 22z"/>
<path d="M755 2430 c26 -18 91 -50 101 -50 2 0 4 4 4 8 0 9 -105 62 -123 62
-6 0 2 -9 18 -20z"/>
<path d="M672 2398 l3 -43 63 -3 c34 -2 62 1 61 5 0 8 -112 83 -123 83 -4 0
-6 -19 -4 -42z"/>
<path d="M2135 2128 c-4 -10 -1 -231 4 -285 1 -7 10 -13 21 -13 19 0 20 7 20
155 0 149 -1 155 -20 155 -11 0 -23 -6 -25 -12z"/>
<path d="M2601 2121 c-19 -12 -6 -41 19 -41 16 0 21 5 18 22 -3 25 -17 32 -37
19z"/>
<path d="M425 2095 c-48 -47 -26 -101 52 -130 98 -36 111 -80 30 -100 -22 -6
-32 -2 -56 24 -31 33 -61 41 -61 15 0 -8 13 -29 29 -45 25 -25 37 -29 83 -29
69 1 102 24 102 73 0 45 -15 62 -72 83 -83 31 -109 74 -56 95 33 12 61 4 74
-22 6 -10 21 -19 34 -19 19 0 23 4 19 20 -16 61 -131 83 -178 35z"/>
<path d="M1210 2081 c0 -11 -10 -27 -22 -36 l-23 -16 23 -16 c19 -14 22 -24
22 -87 0 -79 9 -96 52 -96 33 0 38 24 8 40 -17 9 -20 21 -20 75 0 58 2 65 20
65 11 0 20 6 20 14 0 7 -9 16 -20 19 -14 3 -20 14 -20 31 0 19 -5 26 -20 26
-13 0 -20 -7 -20 -19z"/>
<path d="M2470 2075 c0 -18 -6 -29 -20 -32 -11 -3 -20 -10 -20 -15 0 -5 9 -12
20 -15 18 -5 20 -14 20 -82 0 -87 8 -101 57 -101 37 0 46 24 13 35 -17 6 -20
15 -20 76 0 55 3 69 15 69 8 0 15 7 15 15 0 8 -6 15 -14 15 -9 0 -16 12 -18
28 -2 19 -9 28 -25 30 -19 3 -23 -1 -23 -23z"/>
<path d="M693 2040 c-58 -24 -70 -143 -18 -187 29 -25 78 -30 120 -11 35 16
34 43 -2 33 -60 -15 -103 -2 -103 31 0 11 17 14 65 14 71 0 82 9 71 54 -14 57
-79 89 -133 66z m75 -42 c25 -25 13 -38 -33 -38 -49 0 -50 1 -35 31 12 21 50
25 68 7z"/>
<path d="M913 2039 c-26 -14 -53 -66 -53 -104 0 -34 25 -82 49 -95 27 -14 93
-12 114 4 27 21 22 39 -10 31 -47 -11 -76 -8 -90 11 -22 30 -15 34 58 34 l72
0 -6 41 c-3 23 -14 50 -24 61 -23 23 -80 32 -110 17z m75 -41 c25 -25 13 -38
-33 -38 -49 0 -50 1 -35 31 12 21 50 25 68 7z"/>
<path d="M1336 2043 c-3 -3 -6 -53 -6 -110 0 -103 0 -103 25 -103 24 0 24 2
27 83 3 81 3 82 31 85 21 3 27 9 27 28 0 26 -11 30 -41 14 -13 -7 -25 -7 -38
-1 -10 6 -21 7 -25 4z"/>
<path d="M1500 2038 c-28 -15 -40 -58 -17 -58 8 0 20 7 27 15 17 20 66 19 74
-1 11 -29 6 -34 -33 -34 -74 0 -117 -64 -72 -109 17 -17 33 -20 92 -19 l71 2
-4 88 c-3 62 -9 93 -20 104 -21 21 -87 28 -118 12z m90 -131 c0 -15 -8 -27
-22 -33 -34 -15 -58 -6 -58 20 0 30 7 36 47 36 28 0 33 -4 33 -23z"/>
<path d="M1697 2043 c-4 -3 -7 -53 -7 -110 0 -96 1 -103 20 -103 18 0 20 7 20
64 0 88 12 116 49 116 36 0 41 -12 41 -106 0 -72 1 -74 25 -74 24 0 25 2 25
74 0 41 -4 86 -10 100 -14 37 -50 51 -91 37 -22 -8 -36 -8 -43 -1 -12 12 -20
13 -29 3z"/>
<path d="M1950 2037 c-31 -16 -39 -61 -14 -88 9 -10 32 -21 50 -25 43 -8 61
-28 44 -49 -17 -21 -46 -19 -70 5 -23 23 -50 26 -50 5 0 -8 10 -23 22 -35 32
-30 101 -28 133 4 38 38 18 78 -46 98 -53 15 -69 36 -44 54 25 19 32 18 52 -6
19 -22 53 -27 53 -7 -1 46 -75 72 -130 44z"/>
<path d="M2273 2040 c-31 -13 -49 -48 -28 -56 9 -4 24 1 34 10 25 23 67 21 74
-3 6 -26 0 -31 -35 -31 -31 0 -68 -16 -80 -34 -14 -20 -8 -63 10 -79 12 -11
37 -15 88 -15 l70 1 -4 86 c-3 76 -6 89 -28 109 -26 23 -63 27 -101 12z m79
-135 c-3 -19 -28 -45 -43 -45 -4 0 -15 7 -23 16 -25 25 -3 56 37 52 26 -2 31
-7 29 -23z"/>
<path d="M2744 2041 c-36 -16 -54 -51 -54 -106 1 -68 25 -96 88 -103 41 -4 51
-1 75 23 36 37 39 120 5 160 -25 28 -79 40 -114 26z m85 -63 c11 -20 13 -35 6
-65 -9 -33 -14 -38 -40 -41 -16 -1 -37 2 -45 8 -19 12 -20 91 -1 114 21 25 62
16 80 -16z"/>
<path d="M3001 2041 c-8 -5 -29 -7 -48 -4 l-33 6 0 -107 0 -106 25 0 c24 0 25
2 25 71 0 82 11 109 45 109 33 0 38 -13 36 -82 -2 -75 5 -98 30 -98 17 0 19 8
19 90 0 77 -3 93 -20 110 -21 21 -55 26 -79 11z"/>
<path d="M2600 1935 c0 -98 1 -105 20 -105 19 0 20 7 20 105 0 98 -1 105 -20
105 -19 0 -20 -7 -20 -105z"/>
<path d="M575 1600 c-11 -4 -30 -19 -43 -33 -33 -35 -10 -45 29 -13 40 34 79
33 113 0 33 -33 36 -90 6 -122 -20 -21 -26 -42 -12 -42 27 1 62 56 62 98 0 82
-83 142 -155 112z"/>
<path d="M880 1430 c0 -127 2 -150 15 -150 13 0 15 23 15 150 0 127 -2 150
-15 150 -13 0 -15 -23 -15 -150z"/>
<path d="M1310 1430 c0 -127 2 -150 15 -150 10 0 15 10 15 33 0 30 14 57 30
57 4 0 21 -20 39 -45 18 -25 39 -45 47 -45 22 0 17 13 -21 61 -19 24 -35 51
-35 59 0 8 17 31 37 52 32 33 34 38 16 38 -11 0 -38 -19 -61 -44 -22 -24 -43
-41 -46 -38 -3 3 -6 43 -6 89 0 67 -3 83 -15 83 -13 0 -15 -23 -15 -150z"/>
<path d="M2857 1562 c-10 -10 -17 -31 -17 -45 0 -20 -5 -27 -20 -27 -11 0 -20
-5 -20 -11 0 -6 9 -13 20 -16 18 -5 20 -14 20 -94 0 -72 3 -89 15 -89 12 0 15
17 15 89 0 84 1 90 22 93 32 5 35 28 4 28 -20 0 -26 5 -26 23 0 28 17 47 42
47 10 0 18 5 18 10 0 17 -56 11 -73 -8z"/>
<path d="M4860 1430 c0 -127 2 -150 15 -150 13 0 15 23 15 150 0 127 -2 150
-15 150 -13 0 -15 -23 -15 -150z"/>
<path d="M983 1555 c-7 -20 2 -29 21 -22 9 4 13 13 10 22 -8 19 -23 19 -31 0z"/>
<path d="M2392 1553 c-23 -44 -113 -296 -107 -301 10 -11 24 12 54 93 16 44
41 110 55 147 14 38 21 70 16 73 -5 3 -13 -2 -18 -12z"/>
<path d="M4107 1564 c-14 -14 -7 -35 11 -32 9 2 17 10 17 17 0 16 -18 25 -28
15z"/>
<path d="M1530 1515 c0 -18 -5 -25 -20 -25 -11 0 -20 -5 -20 -11 0 -6 9 -13
20 -16 18 -5 20 -14 20 -82 0 -80 5 -98 30 -101 41 -6 57 13 20 23 -18 5 -20
14 -20 81 0 69 2 76 20 76 11 0 20 7 20 15 0 8 -9 15 -20 15 -15 0 -20 7 -20
25 0 16 -6 25 -15 25 -9 0 -15 -9 -15 -25z"/>
<path d="M557 1452 c-52 -52 -70 -82 -49 -82 4 0 34 27 67 60 39 40 56 63 49
70 -6 6 -29 -9 -67 -48z"/>
<path d="M427 1462 c-98 -102 44 -257 152 -166 17 14 31 30 31 35 0 16 -26 10
-45 -11 -21 -23 -80 -27 -106 -7 -44 34 -49 83 -13 127 35 41 18 61 -19 22z"/>
<path d="M980 1385 c0 -87 3 -105 15 -105 12 0 15 18 15 105 0 87 -3 105 -15
105 -12 0 -15 -18 -15 -105z"/>
<path d="M1080 1385 c0 -87 3 -105 15 -105 12 0 15 15 15 73 0 89 12 110 60
105 l35 -3 3 -88 c2 -77 5 -88 20 -85 31 6 22 179 -10 200 -20 12 -72 9 -87
-4 -11 -10 -14 -10 -18 0 -3 6 -11 12 -19 12 -11 0 -14 -21 -14 -105z"/>
<path d="M1650 1385 c0 -87 3 -105 15 -105 12 0 15 15 15 74 0 79 13 106 51
106 10 0 19 7 19 15 0 17 -23 20 -51 5 -13 -7 -19 -7 -19 0 0 5 -7 10 -15 10
-12 0 -15 -18 -15 -105z"/>
<path d="M1896 1465 c-42 -45 -43 -118 -3 -162 28 -31 105 -32 132 -3 18 19
17 20 -3 20 -11 0 -24 -4 -27 -10 -19 -31 -95 8 -95 50 0 18 7 20 71 20 l72 0
-6 36 c-9 52 -32 74 -79 74 -29 0 -45 -7 -62 -25z m94 -15 c36 -36 26 -50 -35
-50 -48 0 -55 3 -55 19 0 20 35 51 57 51 7 0 22 -9 33 -20z"/>
<path d="M2107 1462 c-22 -23 -27 -37 -27 -78 0 -59 18 -88 64 -104 27 -9 42
-8 70 4 40 17 51 43 14 31 -57 -18 -76 -17 -98 5 -39 39 -24 55 56 58 l72 3
-8 35 c-12 51 -36 74 -80 74 -27 0 -43 -7 -63 -28z m91 -8 c12 -8 22 -24 22
-35 0 -16 -7 -19 -55 -19 -39 0 -55 4 -55 13 0 24 30 52 60 56 3 1 16 -6 28
-15z"/>
<path d="M2470 1383 c0 -85 3 -103 15 -103 12 0 15 15 15 74 0 79 13 106 51
106 10 0 19 6 19 14 0 11 -13 15 -50 14 l-50 -1 0 -104z"/>
<path d="M2644 1482 c-40 -28 -58 -117 -33 -164 17 -32 74 -51 114 -38 18 6
36 18 39 27 5 12 2 14 -16 8 -58 -18 -76 -17 -98 5 -39 39 -24 55 57 58 51 2
71 6 68 15 -2 7 -6 24 -9 39 -3 15 -13 34 -22 42 -16 16 -81 22 -100 8z m74
-28 c12 -8 22 -24 22 -35 0 -16 -7 -19 -55 -19 -39 0 -55 4 -55 13 0 24 30 52
60 56 3 1 16 -6 28 -15z"/>
<path d="M2986 1465 c-45 -48 -40 -134 9 -175 27 -22 91 -17 120 10 46 43 38
152 -13 179 -37 20 -91 13 -116 -14z m112 -23 c17 -22 15 -93 -4 -120 -10 -14
-26 -22 -44 -22 -37 0 -60 32 -60 85 0 59 29 90 75 78 11 -3 26 -12 33 -21z"/>
<path d="M3194 1481 c-2 -2 -4 -49 -4 -103 0 -91 1 -98 20 -98 18 0 20 7 20
78 0 81 9 102 42 102 10 0 18 6 18 14 0 11 -12 14 -46 13 -25 -1 -48 -4 -50
-6z"/>
<path d="M3330 1385 c0 -87 3 -105 15 -105 12 0 15 15 15 79 0 89 9 104 62 99
l33 -3 3 -87 c3 -80 5 -88 22 -88 18 0 20 7 20 78 0 87 8 102 56 102 38 0 44
-14 44 -112 0 -54 3 -68 15 -68 22 0 21 156 -1 188 -18 26 -84 31 -104 7 -11
-13 -15 -13 -33 0 -25 17 -70 19 -98 5 -13 -7 -19 -7 -19 0 0 5 -7 10 -15 10
-12 0 -15 -18 -15 -105z"/>
<path d="M3710 1470 c-25 -25 -16 -49 8 -26 22 19 63 29 79 18 7 -4 14 -19 15
-32 3 -23 -1 -25 -42 -28 -48 -4 -90 -33 -90 -63 0 -30 33 -60 65 -59 17 0 47
1 68 1 l37 0 0 85 c0 71 -3 87 -20 104 -27 27 -93 27 -120 0z m106 -104 c15
-38 -49 -82 -81 -56 -18 15 -20 56 -2 63 26 11 78 7 83 -7z"/>
<path d="M3909 1413 c48 -129 50 -133 63 -133 7 0 29 46 50 106 30 85 34 105
21 102 -10 -2 -26 -32 -42 -75 -14 -40 -28 -73 -32 -73 -3 0 -16 34 -29 75
-18 57 -28 75 -42 75 -16 0 -15 -7 11 -77z"/>
<path d="M4100 1385 c0 -96 2 -106 18 -103 15 3 17 16 17 103 0 87 -2 100 -17
103 -16 3 -18 -7 -18 -103z"/>
<path d="M4220 1470 c-40 -40 -16 -79 63 -101 29 -8 37 -15 37 -33 0 -39 -61
-51 -82 -16 -7 11 -21 20 -30 20 -21 0 -22 -4 -8 -30 24 -45 124 -43 150 2 21
38 6 58 -60 83 -59 23 -69 35 -45 59 22 21 41 20 65 -4 11 -11 27 -20 35 -20
13 0 14 4 4 23 -16 31 -28 37 -71 37 -25 0 -45 -7 -58 -20z"/>
<path d="M4410 1407 c0 -105 15 -130 75 -127 22 1 52 1 68 1 l27 0 0 104 c0
87 -3 105 -15 105 -12 0 -15 -15 -15 -75 0 -80 -18 -115 -59 -115 -32 0 -42
26 -44 107 -2 65 -5 78 -19 81 -16 3 -18 -6 -18 -81z"/>
<path d="M4657 1472 c-16 -18 -23 -42 -12 -42 3 0 19 10 35 22 25 18 33 20 55
10 17 -8 25 -20 25 -37 0 -23 -4 -25 -45 -25 -66 0 -100 -40 -79 -94 9 -23 68
-40 93 -26 11 6 32 8 47 4 l26 -7 -4 86 c-5 105 -20 127 -83 127 -28 0 -47 -6
-58 -18z m103 -121 c0 -54 -88 -68 -99 -16 -4 25 25 45 66 45 30 0 33 -3 33
-29z"/>
<path d="M1762 1298 c7 -19 38 -22 38 -4 0 10 -9 16 -21 16 -12 0 -19 -5 -17
-12z"/>
<path d="M3290 500 l0 -161 28 3 27 3 -3 110 c-2 68 0 106 6 100 5 -5 27 -56
48 -113 52 -137 63 -136 118 13 l41 110 3 -112 c3 -113 3 -113 27 -113 l25 0
0 160 0 160 -33 0 c-29 0 -35 -4 -46 -37 -44 -126 -74 -194 -82 -186 -5 5 -26
56 -47 113 l-39 105 -36 3 -37 3 0 -161z"/>
<path d="M6098 642 c-39 -24 -58 -70 -58 -142 0 -104 44 -160 125 -160 61 0
114 40 115 88 0 34 -36 29 -55 -8 -27 -53 -104 -50 -125 6 -15 38 -12 121 5
154 27 52 93 52 120 1 11 -22 19 -27 39 -24 22 5 23 7 14 35 -21 60 -120 88
-180 50z"/>
<path d="M8555 635 c-69 -68 23 -175 102 -120 41 29 38 98 -6 132 -26 20 -70
15 -96 -12z m79 -21 c24 -9 21 -61 -4 -69 -45 -14 -80 18 -60 56 11 19 35 24
64 13z"/>
<path d="M1250 495 l0 -155 25 0 25 0 0 155 0 155 -25 0 -25 0 0 -155z"/>
<path d="M1350 495 l0 -155 25 0 25 0 0 155 0 155 -25 0 -25 0 0 -155z"/>
<path d="M7478 633 c-11 -3 -18 -14 -18 -28 0 -14 -7 -25 -20 -28 -11 -3 -20
-12 -20 -21 0 -9 8 -16 20 -16 18 0 20 -7 20 -83 0 -95 13 -117 68 -117 25 0
32 4 32 19 0 13 -8 21 -22 23 -22 3 -23 8 -23 78 0 66 2 75 20 80 27 7 26 34
-2 38 -17 2 -23 10 -23 27 0 27 -7 33 -32 28z"/>
<path d="M800 485 l0 -145 25 0 c23 0 24 4 27 63 l3 62 58 3 c49 3 58 6 55 20
-2 13 -16 18 -61 20 l-57 3 0 39 c0 38 1 39 45 46 25 3 54 4 65 1 15 -4 20 0
20 14 0 17 -8 19 -90 19 l-90 0 0 -145z"/>
<path d="M6850 605 c0 -18 -5 -25 -20 -25 -13 0 -20 -7 -20 -20 0 -13 7 -20
20 -20 18 0 20 -7 20 -84 0 -95 11 -116 61 -116 22 0 29 5 29 19 0 10 -9 21
-20 24 -18 5 -20 14 -20 81 0 69 2 76 20 76 12 0 20 7 20 16 0 9 -9 18 -20 21
-13 3 -20 14 -20 29 0 19 -5 24 -25 24 -20 0 -25 -5 -25 -25z"/>
<path d="M8407 593 c-4 -3 -7 -14 -7 -24 0 -11 -9 -19 -22 -21 -29 -4 -30 -32
-1 -36 14 -2 23 -11 25 -25 4 -29 32 -28 36 1 3 16 10 22 28 22 17 0 24 5 24
20 0 15 -7 20 -25 20 -20 0 -25 5 -25 25 0 24 -18 34 -33 18z"/>
<path d="M3707 559 c-57 -44 -60 -148 -6 -193 44 -38 137 -31 153 11 8 19 -18
27 -43 14 -33 -18 -58 -13 -81 17 l-22 27 79 5 78 5 -2 34 c-1 19 -7 44 -13
56 -25 47 -99 59 -143 24z m91 -31 c7 -7 12 -20 12 -30 0 -15 -8 -18 -45 -18
-46 0 -53 7 -35 41 12 21 50 25 68 7z"/>
<path d="M3938 560 c-19 -14 -28 -31 -28 -50 0 -33 11 -43 75 -67 37 -14 50
-24 50 -38 0 -30 -51 -33 -81 -4 -23 21 -54 21 -54 -1 0 -6 11 -22 25 -35 51
-52 165 -21 165 45 0 33 -14 46 -77 69 -35 12 -48 22 -48 36 0 25 46 33 65 11
13 -17 60 -22 60 -7 0 5 -8 19 -18 31 -27 33 -99 39 -134 10z"/>
<path d="M4168 560 c-53 -41 -28 -105 46 -117 40 -6 61 -25 52 -48 -8 -23 -62
-19 -85 6 -12 13 -26 19 -35 16 -22 -9 -20 -24 9 -52 51 -52 165 -21 165 45 0
33 -11 43 -75 67 -37 14 -50 24 -50 38 0 25 46 33 65 11 13 -17 60 -22 60 -7
0 5 -8 19 -18 31 -27 33 -99 39 -134 10z"/>
<path d="M4420 573 c-24 -9 -50 -35 -50 -50 0 -18 46 -17 54 2 9 24 63 19 71
-6 9 -27 3 -32 -43 -36 -74 -8 -110 -58 -78 -108 20 -30 60 -42 98 -27 16 6
30 6 34 1 3 -5 16 -9 28 -9 23 0 23 1 19 98 -4 87 -7 99 -29 120 -24 21 -69
28 -104 15z m80 -148 c0 -44 -71 -60 -86 -20 -10 24 15 45 52 45 30 0 34 -3
34 -25z"/>
<path d="M4647 569 c-62 -36 -61 -185 2 -219 26 -14 74 -13 89 2 9 9 12 6 12
-13 0 -38 -40 -57 -86 -40 -39 14 -50 10 -40 -14 15 -41 110 -43 152 -4 23 22
24 28 24 161 0 129 -1 138 -19 138 -11 0 -21 -6 -24 -12 -4 -10 -7 -10 -18 0
-16 14 -67 15 -92 1z m91 -41 c18 -18 15 -123 -3 -138 -37 -31 -85 13 -85 78
0 56 55 93 88 60z"/>
<path d="M4901 566 c-34 -19 -50 -54 -51 -111 0 -70 31 -106 98 -113 37 -3 52
0 72 16 34 28 17 47 -28 30 -27 -11 -37 -10 -60 3 -15 8 -28 22 -30 32 -3 15
6 17 74 17 l77 0 -6 47 c-9 79 -78 117 -146 79z m83 -42 c31 -30 20 -44 -34
-44 -54 0 -58 4 -34 38 18 26 46 28 68 6z"/>
<path d="M6361 553 c-53 -53 -53 -132 -1 -184 81 -82 207 13 172 129 -16 52
-42 73 -96 79 -40 5 -48 2 -75 -24z m101 -30 c23 -26 29 -67 17 -102 -21 -59
-93 -50 -105 13 -14 78 45 138 88 89z"/>
<path d="M6588 476 c-4 -129 -2 -136 28 -136 24 0 24 2 24 88 0 94 8 112 47
112 33 0 43 -29 43 -119 0 -80 0 -81 25 -81 25 0 25 1 25 91 0 86 -9 125 -34
141 -16 11 -64 10 -86 -2 -13 -7 -21 -7 -25 0 -3 5 -15 10 -25 10 -17 0 -19
-10 -22 -104z"/>
<path d="M7006 559 c-14 -11 -26 -27 -26 -35 0 -19 46 -18 54 1 9 24 63 19 71
-6 9 -26 8 -27 -51 -38 -79 -15 -109 -74 -61 -119 25 -23 66 -28 97 -12 13 7
21 7 25 0 3 -5 16 -10 29 -10 21 0 22 2 18 98 -3 88 -6 99 -28 120 -33 29 -92
30 -128 1z m104 -128 c0 -42 -54 -67 -79 -37 -21 25 4 56 44 56 28 0 35 -4 35
-19z"/>
<path d="M7263 570 c-67 -27 -70 -184 -4 -220 39 -20 91 -12 122 19 16 16 29
34 29 40 0 19 -45 12 -63 -9 -37 -44 -87 -11 -87 57 0 54 27 88 63 79 14 -3
29 -15 32 -27 5 -13 14 -19 28 -17 32 5 32 25 -1 58 -32 31 -73 38 -119 20z"/>
<path d="M1039 531 c-25 -25 -29 -37 -29 -81 0 -44 4 -56 29 -81 43 -42 113
-37 148 10 31 43 20 138 -20 166 -37 26 -94 19 -128 -14z m103 -28 c39 -35 13
-123 -37 -123 -31 0 -50 26 -50 70 0 63 45 91 87 53z"/>
<path d="M1487 549 c-40 -23 -60 -105 -36 -152 30 -59 106 -76 155 -34 22 19
28 34 32 80 4 52 2 58 -26 87 -24 23 -39 30 -69 30 -21 0 -46 -5 -56 -11z m91
-41 c15 -15 16 -82 2 -109 -13 -23 -53 -25 -74 -3 -18 18 -21 76 -6 105 12 22
59 26 78 7z"/>
<path d="M2084 549 c-6 -10 71 -99 86 -99 13 0 90 81 90 95 0 24 -21 18 -57
-17 l-33 -32 -33 32 c-36 35 -42 37 -53 21z"/>
<path d="M8510 454 c-25 -21 -30 -33 -28 -58 3 -34 21 -39 26 -7 6 39 35 52
108 49 l69 -3 18 -38 c18 -39 37 -42 37 -6 0 56 -51 89 -139 89 -50 0 -65 -4
-91 -26z"/>
<path d="M1690 365 c0 -22 4 -26 23 -23 14 2 22 10 22 23 0 13 -8 21 -22 23
-19 3 -23 -1 -23 -23z"/>
<path d="M1782 368 c4 -30 43 -33 43 -3 0 13 -8 21 -23 23 -20 3 -23 0 -20
-20z"/>
<path d="M1867 376 c-7 -19 18 -40 39 -32 8 3 14 14 12 23 -4 22 -43 29 -51 9z"/>
</g>
</svg>
