<?xml version="1.0" standalone="no"?>
<!DOCTYPE svg PUBLIC "-//W3C//DTD SVG 20010904//EN"
 "http://www.w3.org/TR/2001/REC-SVG-20010904/DTD/svg10.dtd">
<svg version="1.0" xmlns="http://www.w3.org/2000/svg"
 width="512.000000pt" height="512.000000pt" viewBox="0 0 512.000000 512.000000"
 preserveAspectRatio="xMidYMid meet">

<g transform="translate(0.000000,512.000000) scale(0.100000,-0.100000)"
fill="#000000" stroke="none">
<path d="M420 4979 c-95 -11 -127 -27 -143 -70 -10 -26 -16 -29 -57 -29 -57 0
-88 -16 -117 -59 l-23 -34 0 -1778 c0 -1763 0 -1779 20 -1833 27 -72 88 -139
158 -173 l57 -28 883 -3 c485 -1 882 -6 882 -10 0 -10 -88 -657 -95 -699 l-6
-32 -137 -3 -137 -3 -9 -27 c-8 -22 -6 -32 9 -48 18 -20 27 -20 760 -20 733 0
742 0 760 20 15 16 17 26 9 48 l-9 27 -138 3 c-75 1 -137 4 -137 5 0 1 -23
164 -50 362 -27 198 -50 363 -50 367 0 4 393 9 873 10 867 3 872 3 918 24 64
30 125 88 157 148 l27 51 3 1188 2 1187 48 0 c59 0 110 25 139 69 22 33 23 41
23 280 0 221 -2 250 -19 281 -24 46 -67 70 -135 77 -52 5 -55 8 -62 37 -18 89
-104 189 -192 223 -44 17 -113 18 -1259 21 l-1213 2 0 111 c0 124 -11 158 -63
189 -19 12 -50 20 -77 20 -41 0 -46 3 -60 33 -20 43 -47 54 -175 67 -259 28
-481 -27 -602 -151 -26 -27 -54 -49 -62 -49 -8 0 -40 25 -72 56 -64 60 -151
105 -252 129 -81 20 -270 26 -377 14z m374 -109 c96 -24 144 -52 219 -123 l57
-54 0 -567 c0 -311 -2 -566 -4 -566 -2 0 -30 16 -62 35 -133 80 -282 115 -496
115 l-148 0 0 584 0 585 43 5 c23 3 56 8 72 10 64 9 243 -4 319 -24z m1055 14
l31 -6 0 -583 0 -583 -177 -5 c-211 -5 -289 -22 -433 -94 -52 -27 -98 -49
-102 -51 -5 -2 -8 252 -8 565 l0 570 25 13 c14 7 32 24 40 36 39 61 179 126
307 144 64 9 259 5 317 -6z m-1579 -650 l0 -556 29 -29 29 -29 159 0 c245 0
376 -34 525 -137 91 -62 125 -62 216 0 151 104 278 137 525 137 l159 0 29 29
29 29 0 556 0 556 38 0 c21 0 43 -5 50 -12 18 -18 17 -1231 0 -1245 -7 -6 -83
-10 -168 -11 -268 0 -464 -47 -634 -151 -124 -76 -148 -76 -276 1 -174 105
-363 150 -630 151 -85 0 -161 4 -167 10 -18 14 -19 1227 -1 1245 7 7 29 12 50
12 l38 0 0 -556z m4350 196 c43 -25 92 -84 105 -127 l6 -22 -238 -3 c-217 -3
-241 -5 -272 -23 -46 -27 -71 -77 -71 -142 l0 -53 -995 0 -995 0 0 200 0 200
1208 -2 1207 -3 45 -25z m304 -266 c14 -13 16 -49 16 -243 0 -163 -3 -230 -12
-239 -17 -17 -629 -17 -646 0 -7 7 -12 41 -12 82 0 39 -5 78 -10 86 -6 10 -31
17 -70 20 l-60 5 60 75 c59 73 60 76 60 137 0 98 -19 93 345 93 272 0 316 -2
329 -16z m-904 -265 c-54 -65 -59 -82 -33 -111 13 -15 31 -18 98 -18 l83 0 4
-55 c5 -64 29 -102 79 -127 29 -16 64 -18 257 -18 l222 0 0 -335 0 -335 -320
0 -320 0 0 88 c0 147 -39 221 -150 286 -48 28 -55 37 -58 67 -2 27 5 48 32 87
81 120 47 271 -77 342 -42 24 -63 30 -115 30 -210 0 -315 -228 -182 -397 11
-14 20 -40 20 -58 0 -34 -15 -51 -65 -75 -42 -21 -97 -79 -120 -125 -15 -30
-21 -66 -23 -142 l-4 -103 -103 0 -102 0 -7 46 c-15 115 -123 263 -234 322
-105 56 -147 62 -447 62 -350 0 -404 -14 -530 -131 -78 -73 -124 -157 -149
-271 l-6 -28 -795 0 -795 0 0 264 0 263 82 6 c111 9 313 -8 418 -34 109 -27
177 -56 279 -118 126 -77 193 -79 303 -10 96 61 184 99 287 125 107 28 315 46
428 38 65 -5 84 -2 113 14 64 35 70 60 70 300 l0 212 955 0 956 0 -51 -61z
m-225 -219 c43 -26 69 -81 62 -130 -2 -20 -21 -61 -41 -90 -31 -45 -36 -60
-36 -109 0 -74 24 -112 103 -161 88 -55 107 -92 107 -204 l0 -86 -270 0 -270
0 0 82 c0 111 23 158 96 199 30 17 65 44 78 60 51 60 47 149 -8 229 -40 59
-47 110 -21 161 34 66 134 90 200 49z m-965 -476 c197 -93 281 -323 190 -517
-29 -61 -98 -138 -155 -171 -86 -51 -141 -58 -433 -54 -253 3 -270 5 -327 27
-84 34 -183 133 -214 215 -84 225 24 448 254 522 30 10 115 13 330 11 l290 -2
65 -31z m-1054 -421 c30 -134 59 -190 138 -268 109 -107 213 -145 404 -145
l102 0 0 -315 0 -315 -415 0 -415 0 0 73 c0 39 -5 89 -10 109 -18 64 -70 130
-135 169 -74 45 -87 73 -57 120 47 74 65 123 65 180 -1 69 -24 120 -76 171
-80 78 -204 85 -301 19 -109 -76 -130 -248 -41 -353 14 -16 25 -41 25 -56 0
-27 -35 -72 -56 -72 -6 0 -34 -20 -62 -45 -64 -57 -90 -118 -98 -229 l-7 -86
-328 0 -329 0 0 535 0 535 795 0 795 0 6 -27z m2954 -508 l0 -535 -253 0
c-270 0 -277 -1 -277 -50 0 -49 7 -50 277 -50 l253 0 0 -202 c0 -176 -3 -208
-19 -244 -25 -55 -83 -101 -145 -114 -36 -8 -667 -10 -2141 -8 l-2090 3 -45
25 c-24 14 -58 44 -75 68 l-30 44 -3 214 -3 214 1936 0 c1316 0 1943 3 1956
10 17 10 19 22 19 138 0 106 -4 134 -21 172 -24 54 -71 105 -120 131 -21 10
-44 26 -53 34 -24 24 -20 73 10 112 105 138 43 331 -122 379 -95 27 -181 0
-247 -76 -70 -82 -75 -189 -13 -289 54 -88 49 -119 -24 -156 -59 -30 -114 -92
-134 -153 -9 -26 -16 -79 -16 -124 l0 -78 -420 0 -420 0 0 314 0 313 128 5
c102 4 140 10 193 30 151 56 264 182 299 333 7 28 13 56 16 63 3 9 170 12 794
12 l790 0 0 -535z m-3460 239 c51 -20 83 -71 83 -130 0 -33 -8 -55 -39 -100
-34 -50 -39 -63 -39 -114 1 -72 26 -108 110 -159 79 -49 105 -97 105 -198 l0
-73 -272 2 -273 3 2 77 c2 108 24 144 125 201 32 19 52 39 67 70 34 71 26 125
-33 211 -52 77 -25 175 59 212 40 17 57 17 105 -2z m2533 -16 c32 -23 57 -73
57 -115 0 -15 -18 -57 -40 -93 -34 -55 -40 -73 -40 -120 0 -72 24 -111 95
-151 31 -17 68 -47 83 -67 24 -31 27 -46 30 -124 l4 -88 -271 0 -271 0 0 78
c0 101 23 143 104 192 83 50 101 79 101 161 0 60 -3 72 -34 114 -46 64 -53
126 -19 175 47 70 132 87 201 38z m-1053 -1537 c0 -12 88 -655 95 -698 l6 -33
-386 0 -387 0 6 28 c7 34 96 684 96 700 0 9 74 12 285 12 171 0 285 -4 285 -9z"/>
<path d="M540 4369 c-55 -13 -70 -25 -70 -54 0 -41 21 -48 99 -35 105 19 200
9 273 -29 57 -29 63 -30 85 -16 49 33 17 77 -85 116 -66 25 -229 35 -302 18z"/>
<path d="M560 4166 c-78 -14 -90 -20 -90 -50 0 -44 21 -50 118 -36 102 14 178
4 258 -35 28 -14 58 -25 67 -25 21 0 40 35 32 59 -13 42 -180 102 -280 100
-22 -1 -69 -6 -105 -13z"/>
<path d="M536 3949 c-50 -12 -66 -25 -66 -55 0 -35 29 -46 91 -33 84 18 204 7
276 -25 66 -30 90 -31 107 -3 36 57 -123 128 -284 126 -47 -1 -103 -5 -124
-10z"/>
<path d="M1430 4365 c-64 -18 -135 -58 -144 -80 -7 -19 8 -50 27 -58 7 -3 42
9 76 26 75 36 184 47 282 28 47 -10 64 -10 75 0 24 20 13 62 -20 78 -44 21
-229 24 -296 6z"/>
<path d="M1472 4169 c-117 -20 -204 -78 -181 -121 17 -31 37 -32 92 -4 80 40
155 50 265 36 103 -14 116 -10 110 36 -2 23 -10 31 -39 41 -51 16 -185 23
-247 12z"/>
<path d="M1420 3942 c-113 -38 -152 -71 -130 -112 14 -27 42 -25 108 7 65 32
180 42 273 24 70 -14 92 -4 87 38 -5 40 -47 54 -173 58 -87 2 -122 -1 -165
-15z"/>
<path d="M2189 3057 c-46 -31 -58 -72 -58 -207 0 -135 12 -176 58 -207 33 -22
42 -23 236 -23 183 0 203 2 218 18 10 10 17 32 17 49 l0 31 80 -26 c117 -38
114 -41 118 155 3 198 4 197 -101 163 -40 -12 -78 -25 -84 -27 -9 -4 -13 6
-13 29 0 65 -12 68 -237 68 -192 0 -201 -1 -234 -23z m381 -207 l0 -140 -165
0 c-152 0 -165 1 -175 19 -5 11 -10 65 -10 121 0 56 5 110 10 121 10 18 23 19
175 19 l165 0 0 -140z m196 -67 c-3 -3 -28 3 -56 12 -50 17 -51 18 -48 53 3
33 7 37 53 52 l50 17 3 -65 c2 -35 1 -67 -2 -69z"/>
<path d="M2400 1513 c-61 -25 -110 -94 -110 -155 0 -57 39 -120 90 -145 55
-28 99 -29 150 -3 148 75 102 297 -63 306 -29 2 -59 1 -67 -3z m100 -113 c11
-11 20 -31 20 -45 0 -14 -9 -34 -20 -45 -11 -11 -31 -20 -45 -20 -14 0 -34 9
-45 20 -11 11 -20 31 -20 45 0 14 9 34 20 45 11 11 31 20 45 20 14 0 34 -9 45
-20z"/>
</g>
</svg>
