<?xml version="1.0" standalone="no"?>
<!DOCTYPE svg PUBLIC "-//W3C//DTD SVG 20010904//EN"
 "http://www.w3.org/TR/2001/REC-SVG-20010904/DTD/svg10.dtd">
<svg version="1.0" xmlns="http://www.w3.org/2000/svg"
 width="512.000000pt" height="512.000000pt" viewBox="0 0 512.000000 512.000000"
 preserveAspectRatio="xMidYMid meet">

<g transform="translate(0.000000,512.000000) scale(0.100000,-0.100000)"
fill="#000000" stroke="none">
<path d="M3690 5106 c-155 -33 -275 -99 -390 -215 -98 -99 -140 -165 -183
-288 -29 -82 -31 -98 -32 -223 0 -74 4 -156 8 -182 l8 -48 -47 21 c-76 32
-230 75 -339 95 -179 31 -477 21 -650 -22 -19 -5 -23 3 -38 66 -61 255 -247
454 -502 539 -384 128 -806 -77 -946 -459 -129 -355 18 -743 352 -928 l66 -36
-37 -81 c-55 -118 -85 -207 -114 -337 -99 -440 -17 -884 235 -1273 70 -108
110 -195 141 -301 22 -77 22 -92 28 -747 5 -726 2 -691 60 -685 49 6 50 11 50
623 0 314 -5 618 -10 677 -18 186 -67 319 -185 505 -294 461 -332 1006 -104
1502 37 79 40 83 66 78 16 -3 55 -9 88 -12 l61 -7 -52 -102 c-60 -117 -106
-247 -130 -373 -24 -121 -24 -375 -1 -496 49 -245 167 -486 311 -635 251 -260
648 -330 971 -172 118 58 1073 743 1148 823 64 69 128 186 152 282 52 205 -27
515 -200 782 -78 121 -242 280 -365 355 -115 71 -262 130 -400 159 -85 18
-136 23 -270 22 -162 0 -190 -3 -389 -50 -20 -5 -23 -3 -18 11 4 10 10 49 13
86 l7 69 66 15 c302 68 632 37 930 -89 110 -46 111 -47 147 -107 77 -126 227
-248 368 -300 48 -18 67 -32 103 -77 104 -132 180 -285 274 -551 18 -52 149
-326 291 -609 147 -293 258 -526 258 -541 0 -52 -32 -74 -220 -156 -99 -43
-195 -90 -214 -106 -67 -55 -70 -72 -76 -378 -5 -273 -5 -275 -32 -332 -34
-74 -112 -152 -186 -186 l-57 -27 -703 -5 c-682 -5 -704 -6 -718 -24 -19 -27
-18 -42 6 -66 19 -19 33 -20 250 -20 l230 0 0 -269 c0 -295 2 -306 59 -299 47
5 51 31 51 311 l0 257 384 0 c219 0 406 4 437 10 167 32 316 168 369 335 9 26
15 136 19 312 6 255 7 274 26 292 11 11 97 54 190 96 94 42 185 86 203 97 50
31 85 99 85 164 0 52 -14 82 -236 522 -240 477 -303 612 -352 762 -36 112 -99
245 -163 348 -29 46 -52 85 -52 86 0 2 39 6 88 9 118 9 190 29 301 83 169 83
311 248 378 439 26 74 28 91 28 235 0 149 -1 159 -31 243 -45 125 -87 190
-189 292 -101 102 -195 158 -325 195 -97 27 -261 35 -350 16z m343 -125 c109
-38 180 -83 263 -166 98 -97 154 -201 180 -335 43 -216 -21 -417 -185 -580
-132 -131 -272 -190 -453 -190 -332 0 -602 238 -648 574 -44 311 169 622 482
706 97 27 274 22 361 -9z m-2579 -221 c231 -59 409 -237 472 -470 22 -84 23
-234 1 -320 -61 -238 -267 -434 -504 -480 -87 -17 -252 -8 -333 18 -312 102
-503 434 -435 757 49 232 242 433 477 495 98 25 223 26 322 0z m1213 -869
c419 -82 730 -363 869 -787 50 -153 62 -252 42 -352 -21 -106 -68 -199 -137
-272 -61 -65 -1003 -741 -1101 -790 -327 -165 -728 -62 -937 242 -96 139 -161
293 -199 468 -25 118 -25 372 0 490 33 154 95 308 174 431 34 53 39 57 92 69
30 6 102 34 160 63 89 43 118 64 191 137 60 59 99 108 128 161 l41 76 68 21
c153 48 218 59 384 61 90 1 156 -5 225 -18z"/>
<path d="M3574 4578 l-64 -61 -28 26 c-47 45 -102 32 -102 -23 0 -20 16 -42
59 -83 33 -32 65 -57 71 -57 7 0 42 29 79 65 37 36 72 65 77 65 5 0 106 -97
224 -215 151 -151 221 -215 237 -215 27 0 151 113 159 145 9 36 -12 65 -47 65
-21 0 -42 -12 -72 -39 l-42 -40 -216 215 c-177 176 -220 214 -243 214 -20 0
-45 -16 -92 -62z"/>
<path d="M1130 4560 c-18 -18 -20 -33 -20 -135 l0 -115 -115 0 c-158 0 -155 4
-155 -180 0 -184 -3 -180 155 -180 l115 0 0 -113 c0 -162 -6 -157 179 -157
188 0 181 -6 181 153 l0 117 113 0 c162 0 157 -6 157 180 0 186 5 180 -157
180 l-113 0 0 118 c0 158 7 152 -178 152 -129 0 -144 -2 -162 -20z m230 -205
c0 -102 2 -117 20 -135 18 -18 33 -20 135 -20 l115 0 0 -70 0 -70 -115 0
c-155 0 -155 0 -155 -155 l0 -115 -70 0 -70 0 0 119 c0 153 2 151 -157 151
l-113 0 0 70 0 70 113 0 c159 0 157 -2 157 151 l0 119 70 0 70 0 0 -115z"/>
<path d="M2380 3621 c-73 -22 -145 -78 -178 -137 -9 -16 -15 -16 -50 -6 -55
17 -140 15 -195 -4 -54 -18 -125 -78 -151 -125 -18 -33 -19 -34 -89 -35 -143
-2 -265 -81 -329 -212 -30 -61 -33 -74 -33 -162 0 -83 4 -103 27 -153 l28 -59
-22 -41 c-29 -58 -36 -168 -14 -235 23 -69 87 -139 157 -172 l57 -27 -19 -42
c-42 -95 -24 -109 146 -111 72 -1 138 -1 147 -1 10 1 43 35 74 76 31 41 58 75
59 75 2 0 16 -7 31 -15 52 -27 130 -38 185 -26 116 25 199 98 236 207 20 60
43 95 80 120 26 17 57 19 383 24 345 5 356 6 402 28 61 31 116 85 142 141 29
64 27 161 -3 219 -31 61 -98 125 -154 148 -43 17 -47 22 -47 53 0 56 -21 110
-62 155 -47 54 -104 78 -177 75 -54 -3 -55 -2 -66 30 -15 47 -69 108 -115 131
-43 22 -103 26 -145 10 -23 -9 -33 -6 -69 20 -70 51 -168 72 -236 51z m133
-115 c18 -7 49 -32 70 -55 42 -46 67 -51 104 -21 36 28 93 27 121 -3 28 -30
52 -89 52 -129 0 -38 -29 -107 -53 -127 -21 -17 -22 -64 -3 -80 8 -7 27 -11
42 -9 36 4 90 73 105 133 9 35 17 46 41 54 58 21 118 -9 143 -71 14 -37 15
-44 0 -89 -21 -64 -9 -89 42 -89 84 0 174 -77 188 -159 10 -61 -31 -140 -90
-174 -14 -8 -133 -14 -375 -17 l-356 -5 -51 -26 -50 -27 -21 44 c-36 74 -99
94 -124 40 -8 -19 -4 -33 21 -78 57 -101 33 -211 -58 -270 -41 -26 -53 -29
-112 -26 -52 3 -75 9 -108 31 -23 16 -52 27 -64 25 -14 -2 -46 -35 -87 -90
l-65 -87 -67 0 c-53 -1 -68 2 -68 13 0 20 28 46 49 46 27 0 110 57 122 84 30
64 -29 111 -79 63 -39 -36 -69 -49 -116 -49 -62 -1 -111 19 -150 62 -93 103
-67 226 64 313 42 28 50 64 20 92 -19 17 -25 18 -53 6 -61 -24 -62 -24 -76 16
-51 138 32 307 173 348 109 33 195 9 277 -76 33 -34 65 -59 77 -59 27 0 52 26
52 54 0 28 -68 107 -118 137 -20 12 -38 24 -40 25 -9 6 22 46 53 70 69 53 154
52 237 -3 52 -35 81 -23 97 40 27 108 135 165 234 123z"/>
<path d="M2230 3150 c-24 -24 -25 -38 -5 -66 10 -15 29 -23 68 -27 30 -3 72
-14 94 -25 39 -20 101 -82 122 -120 13 -24 39 -32 68 -21 53 19 29 92 -55 171
-58 55 -108 82 -180 97 -73 15 -89 14 -112 -9z"/>
<path d="M1742 3004 c-27 -18 -29 -60 -4 -91 42 -52 139 -82 170 -51 28 28 8
88 -29 88 -9 0 -36 16 -59 35 -48 40 -48 40 -78 19z"/>
<path d="M2836 2954 c-22 -22 -20 -44 10 -87 35 -53 96 -94 159 -108 47 -10
57 -10 79 5 46 30 25 96 -30 96 -39 0 -89 25 -112 56 -38 50 -42 54 -67 54
-13 0 -31 -7 -39 -16z"/>
<path d="M2055 2792 c-126 -41 -244 -239 -171 -287 38 -25 73 -6 87 48 20 80
96 147 166 147 58 0 97 62 61 98 -17 17 -83 14 -143 -6z"/>
</g>
</svg>
