<?xml version="1.0" standalone="no"?>
<!DOCTYPE svg PUBLIC "-//W3C//DTD SVG 20010904//EN"
 "http://www.w3.org/TR/2001/REC-SVG-20010904/DTD/svg10.dtd">
<svg version="1.0" xmlns="http://www.w3.org/2000/svg"
 width="512.000000pt" height="512.000000pt" viewBox="0 0 512.000000 512.000000"
 preserveAspectRatio="xMidYMid meet">

<g transform="translate(0.000000,512.000000) scale(0.100000,-0.100000)"
fill="#000000" stroke="none">
<path d="M277 4842 c-15 -17 -17 -65 -17 -493 0 -261 4 -479 8 -485 13 -21 54
-36 79 -29 50 12 53 38 53 480 l0 405 405 0 c442 0 468 3 480 53 7 25 -8 66
-29 79 -6 4 -225 8 -487 8 -448 0 -477 -1 -492 -18z"/>
<path d="M3856 4844 c-42 -42 -23 -106 35 -118 17 -3 211 -6 430 -6 l399 0 0
-399 c0 -219 3 -413 6 -430 12 -58 76 -77 118 -35 14 14 16 72 16 493 0 450
-1 479 -18 494 -17 15 -66 17 -495 17 -419 0 -477 -2 -491 -16z"/>
<path d="M2490 4281 c-47 -9 -200 -71 -305 -124 -141 -71 -245 -165 -297 -268
-33 -65 -75 -205 -84 -280 -14 -122 93 -629 141 -669 8 -7 15 -24 15 -39 0
-47 66 -218 113 -294 113 -181 282 -302 496 -355 60 -15 71 -14 144 1 129 26
266 99 371 197 106 99 201 270 232 420 10 47 32 114 50 150 76 156 105 304 92
485 -17 243 -107 438 -273 593 -85 80 -170 126 -295 162 -83 24 -316 36 -400
21z m344 -151 c118 -30 194 -71 269 -145 143 -142 216 -326 219 -553 0 -54 -5
-124 -12 -156 l-12 -59 -29 54 c-43 78 -113 145 -195 185 -62 31 -86 37 -198
48 -127 12 -129 12 -155 44 -32 40 -74 51 -191 52 -161 0 -281 -50 -395 -165
-46 -45 -81 -92 -100 -132 -17 -35 -33 -63 -36 -63 -8 0 -34 137 -51 260 -10
77 -9 93 11 170 49 193 122 280 316 375 176 86 240 104 371 105 78 0 133 -6
188 -20z m-193 -704 c48 -44 88 -56 225 -65 94 -7 118 -12 163 -36 96 -53 135
-122 152 -272 14 -119 1 -184 -61 -308 -87 -176 -240 -303 -422 -349 -51 -13
-65 -13 -115 0 -127 32 -256 114 -343 219 -52 63 -115 190 -137 276 -17 67
-17 67 11 180 15 62 40 138 56 169 27 54 112 144 160 170 52 28 138 49 204 49
64 1 71 -1 107 -33z"/>
<path d="M1955 2114 c-165 -57 -329 -118 -364 -135 -77 -38 -193 -145 -239
-222 -66 -109 -79 -167 -107 -480 -34 -381 -34 -380 -11 -406 l19 -21 1390 2
1390 3 18 25 c17 24 17 36 -11 343 -16 177 -36 343 -45 375 -46 158 -167 308
-305 375 -92 45 -660 247 -695 247 -14 0 -51 -13 -83 -29 -66 -33 -166 -65
-234 -75 -61 -9 -193 22 -295 69 -42 19 -88 35 -102 35 -14 -1 -161 -48 -326
-106z m1410 -164 c127 -45 236 -85 243 -89 9 -5 -17 -50 -88 -151 l-100 -144
0 -288 0 -288 -780 0 -780 0 0 289 0 288 -96 139 c-52 76 -97 141 -100 145 -4
7 174 74 441 165 l170 58 83 -32 c96 -38 231 -72 283 -72 51 0 211 42 294 77
l70 30 65 -23 c36 -12 169 -59 295 -104z m-1731 -301 l86 -122 0 -268 0 -269
-180 0 -181 0 6 58 c3 31 14 154 25 273 19 224 35 295 81 361 21 31 70 88 75
88 2 0 41 -55 88 -121z m2135 86 c34 -39 65 -95 88 -159 10 -30 61 -491 63
-578 0 -5 -83 -8 -185 -8 l-185 0 0 265 0 265 87 125 c48 69 90 125 94 125 4
0 21 -16 38 -35z"/>
<path d="M295 1278 c-11 -6 -23 -16 -27 -22 -4 -6 -8 -225 -8 -487 0 -448 1
-477 18 -492 17 -15 66 -17 495 -17 419 0 477 2 491 16 42 42 23 106 -35 118
-17 3 -211 6 -430 6 l-398 0 -3 426 -3 426 -24 19 c-26 22 -47 23 -76 7z"/>
<path d="M4749 1271 l-24 -19 -3 -426 -3 -426 -398 0 c-219 0 -413 -3 -430 -6
-58 -12 -77 -76 -35 -118 14 -14 72 -16 493 -16 450 0 479 1 494 18 15 17 17
65 17 493 0 261 -4 479 -8 485 -9 15 -47 34 -65 34 -8 0 -25 -9 -38 -19z"/>
</g>
</svg>
