<?xml version="1.0" standalone="no"?>
<!DOCTYPE svg PUBLIC "-//W3C//DTD SVG 20010904//EN"
 "http://www.w3.org/TR/2001/REC-SVG-20010904/DTD/svg10.dtd">
<svg version="1.0" xmlns="http://www.w3.org/2000/svg"
 width="130" height="60" viewBox="0 0 1295.000000 571.000000"
 preserveAspectRatio="xMidYMid meet">

<g transform="translate(0.000000,571.000000) scale(0.100000,-0.100000)"
fill="#204850" stroke="none">
<path d="M5945 5293 c-713 -34 -1171 -80 -1730 -174 -871 -147 -1630 -372
-2271 -674 -253 -119 -581 -320 -771 -474 -125 -100 -331 -313 -404 -416 -250
-353 -303 -724 -155 -1089 255 -632 1132 -1202 2438 -1582 765 -222 1662 -366
2668 -426 284 -17 1266 -17 1540 0 905 57 1631 162 2355 343 757 189 1450 472
1930 786 471 309 757 647 862 1018 25 91 28 114 28 265 0 149 -3 175 -28 265
-35 127 -126 312 -214 434 -81 112 -262 298 -394 403 -916 734 -2681 1230
-4688 1318 -206 9 -1002 11 -1166 3z m25 -1554 c64 -30 128 -92 158 -152 25
-50 52 -170 52 -229 0 -51 -21 -170 -32 -182 -4 -6 -8 -16 -8 -23 0 -30 -75
-124 -123 -155 -67 -43 -117 -58 -202 -58 -119 0 -208 41 -275 126 -60 76 -82
151 -83 284 -1 117 8 160 45 236 30 62 106 131 174 160 82 34 213 31 294 -7z
m-3138 -13 c69 -33 105 -83 114 -158 13 -115 -46 -214 -151 -251 -11 -4 5 -41
47 -104 15 -23 28 -43 28 -46 0 -2 25 -45 55 -95 61 -101 66 -122 33 -122 -35
0 -40 6 -113 130 -37 63 -83 139 -101 168 l-34 52 -90 0 -90 0 -1 -57 c-1 -32
-2 -107 -3 -167 -1 -88 -4 -111 -17 -119 -9 -6 -24 -7 -33 -4 -14 6 -16 45
-16 400 0 217 3 397 8 402 4 4 75 5 158 2 136 -5 157 -8 206 -31z m956 25 c8
-5 12 -17 10 -27 -3 -18 -18 -19 -193 -25 -105 -3 -191 -6 -192 -7 -9 -6 -1
-272 7 -277 6 -4 86 -7 178 -8 l167 -2 0 -30 0 -30 -165 0 c-91 0 -171 -4
-177 -8 -19 -12 -18 -300 0 -316 8 -6 81 -12 193 -13 l179 -3 0 -25 0 -25
-220 0 -220 0 -3 390 c-1 214 0 396 3 402 3 10 55 13 212 13 114 0 214 -4 221
-9z m1357 -21 l0 -25 -185 -5 -185 -5 0 -160 0 -160 175 -6 c96 -3 176 -6 178
-7 1 -1 2 -13 2 -27 0 -14 -1 -26 -2 -27 -2 -1 -82 -4 -178 -7 l-175 -6 -5
-170 -5 -170 -25 0 -25 0 -3 390 c-1 214 0 396 3 403 3 10 52 12 217 10 l213
-3 0 -25z m1777 9 c51 -17 105 -64 124 -107 20 -47 20 -147 0 -193 -16 -37
-89 -109 -112 -109 -6 0 -16 -6 -22 -13 -8 -9 6 -39 50 -112 33 -55 68 -113
78 -130 9 -16 27 -46 38 -65 31 -49 28 -62 -10 -58 -29 3 -38 12 -75 73 -24
39 -49 81 -56 95 -8 14 -29 50 -47 80 -19 30 -40 65 -47 78 -13 21 -19 23
-106 20 l-92 -3 -5 -170 c-5 -153 -7 -170 -23 -173 -46 -9 -47 -4 -47 402 0
292 3 385 13 395 15 16 282 9 339 -10z m636 9 c6 -7 69 -159 142 -338 72 -179
135 -329 140 -334 6 -6 12 -2 16 10 3 10 51 130 105 265 55 135 99 249 99 252
0 4 16 41 35 83 l35 75 37 -3 c31 -3 38 -8 44 -32 10 -37 9 -749 -1 -765 -4
-7 -18 -11 -31 -9 l-24 3 -5 350 -5 350 -39 -100 c-21 -55 -47 -118 -56 -140
-10 -22 -53 -128 -96 -235 -42 -107 -84 -203 -92 -212 -33 -39 -41 -29 -112
152 -22 58 -50 124 -61 147 -10 24 -19 47 -19 53 0 6 -4 18 -9 28 -17 32 -31
67 -80 192 l-50 125 0 -342 c-1 -188 -4 -348 -7 -357 -3 -9 -17 -16 -30 -16
l-24 0 0 398 c0 219 3 402 7 405 11 12 70 8 81 -5z m1359 -10 c6 -13 32 -77
58 -143 26 -66 51 -129 55 -140 99 -243 189 -490 182 -497 -6 -6 -20 -8 -33
-6 -21 3 -32 23 -79 141 l-55 137 -158 -2 c-184 -3 -163 11 -222 -148 -46
-121 -48 -124 -75 -128 -32 -5 -46 12 -32 40 6 13 66 160 132 328 67 168 128
319 135 335 7 17 20 47 29 68 17 43 47 50 63 15z m1201 -137 c104 -54 149
-176 139 -383 -12 -272 -152 -565 -384 -803 -123 -127 -160 -145 -184 -92 -10
23 -3 32 93 128 155 155 277 350 343 544 35 106 46 165 46 260 0 158 -39 248
-120 275 -166 55 -386 -220 -480 -600 -54 -219 -56 -483 -5 -638 65 -199 198
-321 387 -352 173 -30 425 25 672 145 94 46 136 71 252 150 18 13 65 -38 56
-61 -8 -21 -131 -103 -231 -153 -163 -82 -336 -140 -492 -166 -289 -49 -523
35 -648 232 -15 24 -31 43 -37 43 -5 0 -23 -9 -40 -21 -52 -35 -187 -96 -265
-119 -91 -27 -240 -30 -321 -6 -51 16 -156 69 -246 127 -35 22 -59 29 -95 29
-51 0 -68 -8 -186 -85 -87 -56 -218 -118 -284 -134 -26 -6 -77 -11 -115 -11
-110 0 -173 46 -176 129 -1 22 -6 41 -11 41 -4 0 -34 -15 -65 -34 -69 -42
-167 -86 -246 -112 -45 -14 -89 -19 -175 -19 -103 0 -120 3 -163 25 -27 13
-65 41 -85 62 -36 37 -91 131 -92 156 0 6 -1 12 -3 12 -1 0 -57 -53 -122 -118
-105 -103 -132 -123 -219 -167 -96 -49 -100 -50 -190 -50 -81 0 -95 3 -131 26
-57 37 -105 143 -105 232 0 98 81 358 118 381 4 3 21 -6 38 -19 28 -22 28 -24
15 -57 -55 -133 -71 -196 -73 -278 -4 -146 33 -200 140 -200 105 0 218 64 352
199 61 62 107 118 128 158 18 34 37 65 41 68 5 3 22 2 39 -1 28 -6 30 -9 42
-83 43 -269 245 -340 542 -190 81 41 232 134 248 154 7 8 21 15 30 15 10 0 42
20 71 45 113 96 236 136 422 136 173 0 286 -23 392 -82 69 -38 76 -52 42 -86
-25 -25 -29 -27 -50 -13 -161 102 -439 127 -618 56 -167 -68 -284 -229 -204
-282 21 -14 41 -16 108 -11 70 6 94 13 174 53 51 25 120 63 153 85 33 21 63
39 66 39 3 0 20 10 37 23 27 18 45 22 112 22 79 0 81 0 175 -57 208 -124 314
-143 480 -89 79 26 215 92 253 123 l28 23 -22 80 c-19 69 -22 107 -23 270 0
199 10 279 55 430 87 291 240 520 394 591 66 30 169 32 223 5z m-5878 -441 c5
0 18 -10 30 -22 26 -28 27 -88 1 -119 -25 -31 -93 -33 -115 -4 -18 23 -21 88
-5 116 12 23 47 40 67 33 8 -2 18 -4 22 -4z m1862 -321 c14 -7 17 -16 12 -37
-4 -15 -9 -31 -12 -35 -2 -5 -54 -6 -116 -2 -402 25 -816 -161 -816 -366 0
-96 90 -153 380 -239 212 -62 286 -95 341 -152 77 -81 29 -211 -106 -289 -62
-36 -88 -37 -103 -4 -18 39 -16 41 43 71 31 15 69 43 85 63 72 87 15 142 -210
205 -198 55 -235 66 -296 91 l-42 16 -103 -69 c-233 -155 -437 -232 -617 -232
-169 0 -312 81 -372 210 l-23 49 -26 -18 c-42 -29 -110 -56 -211 -87 -86 -26
-109 -29 -240 -28 -161 0 -225 13 -388 80 l-87 35 -54 -58 c-53 -58 -161 -212
-161 -231 0 -5 -7 -15 -15 -22 -13 -10 -20 -7 -48 23 -150 165 -202 462 -109
622 22 37 40 41 70 15 l23 -19 -25 -77 c-33 -98 -35 -203 -5 -295 21 -65 55
-129 68 -129 4 0 27 28 50 61 67 95 180 209 206 209 13 0 43 -10 67 -21 133
-66 300 -109 424 -109 107 0 289 51 375 105 l56 35 6 82 c6 78 30 172 46 183
12 7 71 -18 71 -30 0 -6 -7 -37 -15 -68 -44 -169 17 -320 158 -395 48 -25 60
-27 167 -26 131 0 220 24 363 95 92 46 257 150 257 163 0 5 -8 16 -18 25 -51
46 -67 84 -67 161 0 69 3 79 36 130 20 30 52 70 72 88 36 31 170 122 181 122
4 0 25 9 49 19 91 42 226 78 336 91 90 10 317 3 343 -11z"/>
<path d="M5719 3696 c-69 -22 -124 -70 -155 -135 -83 -174 -39 -436 85 -514
55 -34 100 -47 166 -47 142 0 235 73 275 215 7 24 10 91 8 165 -3 129 -12 162
-61 233 -54 79 -207 119 -318 83z"/>
<path d="M2530 3699 c0 -2 -1 -79 -3 -172 l-2 -167 106 0 c114 0 160 10 198
44 54 48 69 157 28 216 -40 60 -76 74 -209 78 -65 3 -118 3 -118 1z"/>
<path d="M6648 3694 c-5 -4 -8 -81 -8 -171 l0 -163 109 0 c154 0 217 32 239
123 20 80 -9 161 -70 192 -35 18 -256 34 -270 19z"/>
<path d="M8869 3603 c-6 -16 -28 -75 -50 -133 -22 -58 -44 -113 -50 -122 -5
-10 -9 -27 -9 -38 0 -19 6 -20 124 -20 69 0 127 4 130 9 5 7 -20 77 -64 186
-5 11 -19 48 -32 83 -12 34 -26 62 -31 62 -4 0 -12 -12 -18 -27z"/>
</g>
</svg>
